<svg width="760" height="130" xmlns="http://www.w3.org/2000/svg">
    <rect width="760" height="130" fill="#0d1117" rx="3"/>
    <text x="84" y="10" fill="#7d8590" font-size="10" font-family="-apple-system, BlinkMacSystemFont, Segoe UI, Helvetica, Arial, sans-serif">Jul</text><text x="136" y="10" fill="#7d8590" font-size="10" font-family="-apple-system, BlinkMacSystemFont, Segoe UI, Helvetica, Arial, sans-serif">Aug</text><text x="201" y="10" fill="#7d8590" font-size="10" font-family="-apple-system, BlinkMacSystemFont, Segoe UI, Helvetica, Arial, sans-serif">Sep</text><text x="253" y="10" fill="#7d8590" font-size="10" font-family="-apple-system, BlinkMacSystemFont, Segoe UI, Helvetica, Arial, sans-serif">Oct</text><text x="305" y="10" fill="#7d8590" font-size="10" font-family="-apple-system, BlinkMacSystemFont, Segoe UI, Helvetica, Arial, sans-serif">Nov</text><text x="370" y="10" fill="#7d8590" font-size="10" font-family="-apple-system, BlinkMacSystemFont, Segoe UI, Helvetica, Arial, sans-serif">Dec</text><text x="422" y="10" fill="#7d8590" font-size="10" font-family="-apple-system, BlinkMacSystemFont, Segoe UI, Helvetica, Arial, sans-serif">Jan</text><text x="474" y="10" fill="#7d8590" font-size="10" font-family="-apple-system, BlinkMacSystemFont, Segoe UI, Helvetica, Arial, sans-serif">Feb</text><text x="526" y="10" fill="#7d8590" font-size="10" font-family="-apple-system, BlinkMacSystemFont, Segoe UI, Helvetica, Arial, sans-serif">Mar</text><text x="591" y="10" fill="#7d8590" font-size="10" font-family="-apple-system, BlinkMacSystemFont, Segoe UI, Helvetica, Arial, sans-serif">Apr</text><text x="643" y="10" fill="#7d8590" font-size="10" font-family="-apple-system, BlinkMacSystemFont, Segoe UI, Helvetica, Arial, sans-serif">May</text><text x="708" y="10" fill="#7d8590" font-size="10" font-family="-apple-system, BlinkMacSystemFont, Segoe UI, Helvetica, Arial, sans-serif">Jun</text>
    <g transform="translate(0, 20)">
        <text x="11" y="24" fill="#7d8590" font-size="10" font-family="-apple-system, BlinkMacSystemFont, Segoe UI, Helvetica, Arial, sans-serif">M  </text><text x="11" y="50" fill="#7d8590" font-size="10" font-family="-apple-system, BlinkMacSystemFont, Segoe UI, Helvetica, Arial, sans-serif">W  </text><text x="11" y="76" fill="#7d8590" font-size="10" font-family="-apple-system, BlinkMacSystemFont, Segoe UI, Helvetica, Arial, sans-serif">F  </text>
        <rect x="42" y="0" width="11" height="11" rx="2" fill="#161b22"><title>2024-06-16: 0 minutes of GPU activity</title></rect><rect x="42" y="13" width="11" height="11" rx="2" fill="#161b22"><title>2024-06-17: 0 minutes of GPU activity</title></rect><rect x="42" y="26" width="11" height="11" rx="2" fill="#161b22"><title>2024-06-18: 0 minutes of GPU activity</title></rect><rect x="42" y="39" width="11" height="11" rx="2" fill="#161b22"><title>2024-06-19: 0 minutes of GPU activity</title></rect><rect x="42" y="52" width="11" height="11" rx="2" fill="#161b22"><title>2024-06-20: 0 minutes of GPU activity</title></rect><rect x="42" y="65" width="11" height="11" rx="2" fill="#161b22"><title>2024-06-21: 0 minutes of GPU activity</title></rect><rect x="42" y="78" width="11" height="11" rx="2" fill="#161b22"><title>2024-06-22: 0 minutes of GPU activity</title></rect><rect x="55" y="0" width="11" height="11" rx="2" fill="#161b22"><title>2024-06-23: 0 minutes of GPU activity</title></rect><rect x="55" y="13" width="11" height="11" rx="2" fill="#161b22"><title>2024-06-24: 0 minutes of GPU activity</title></rect><rect x="55" y="26" width="11" height="11" rx="2" fill="#161b22"><title>2024-06-25: 0 minutes of GPU activity</title></rect><rect x="55" y="39" width="11" height="11" rx="2" fill="#161b22"><title>2024-06-26: 0 minutes of GPU activity</title></rect><rect x="55" y="52" width="11" height="11" rx="2" fill="#161b22"><title>2024-06-27: 0 minutes of GPU activity</title></rect><rect x="55" y="65" width="11" height="11" rx="2" fill="#161b22"><title>2024-06-28: 0 minutes of GPU activity</title></rect><rect x="55" y="78" width="11" height="11" rx="2" fill="#161b22"><title>2024-06-29: 0 minutes of GPU activity</title></rect><rect x="68" y="0" width="11" height="11" rx="2" fill="#161b22"><title>2024-06-30: 0 minutes of GPU activity</title></rect><rect x="68" y="13" width="11" height="11" rx="2" fill="#161b22"><title>2024-07-01: 0 minutes of GPU activity</title></rect><rect x="68" y="26" width="11" height="11" rx="2" fill="#161b22"><title>2024-07-02: 0 minutes of GPU activity</title></rect><rect x="68" y="39" width="11" height="11" rx="2" fill="#161b22"><title>2024-07-03: 0 minutes of GPU activity</title></rect><rect x="68" y="52" width="11" height="11" rx="2" fill="#161b22"><title>2024-07-04: 0 minutes of GPU activity</title></rect><rect x="68" y="65" width="11" height="11" rx="2" fill="#161b22"><title>2024-07-05: 0 minutes of GPU activity</title></rect><rect x="68" y="78" width="11" height="11" rx="2" fill="#161b22"><title>2024-07-06: 0 minutes of GPU activity</title></rect><rect x="81" y="0" width="11" height="11" rx="2" fill="#161b22"><title>2024-07-07: 0 minutes of GPU activity</title></rect><rect x="81" y="13" width="11" height="11" rx="2" fill="#161b22"><title>2024-07-08: 0 minutes of GPU activity</title></rect><rect x="81" y="26" width="11" height="11" rx="2" fill="#161b22"><title>2024-07-09: 0 minutes of GPU activity</title></rect><rect x="81" y="39" width="11" height="11" rx="2" fill="#161b22"><title>2024-07-10: 0 minutes of GPU activity</title></rect><rect x="81" y="52" width="11" height="11" rx="2" fill="#161b22"><title>2024-07-11: 0 minutes of GPU activity</title></rect><rect x="81" y="65" width="11" height="11" rx="2" fill="#161b22"><title>2024-07-12: 0 minutes of GPU activity</title></rect><rect x="81" y="78" width="11" height="11" rx="2" fill="#161b22"><title>2024-07-13: 0 minutes of GPU activity</title></rect><rect x="94" y="0" width="11" height="11" rx="2" fill="#161b22"><title>2024-07-14: 0 minutes of GPU activity</title></rect><rect x="94" y="13" width="11" height="11" rx="2" fill="#161b22"><title>2024-07-15: 0 minutes of GPU activity</title></rect><rect x="94" y="26" width="11" height="11" rx="2" fill="#161b22"><title>2024-07-16: 0 minutes of GPU activity</title></rect><rect x="94" y="39" width="11" height="11" rx="2" fill="#161b22"><title>2024-07-17: 0 minutes of GPU activity</title></rect><rect x="94" y="52" width="11" height="11" rx="2" fill="#161b22"><title>2024-07-18: 0 minutes of GPU activity</title></rect><rect x="94" y="65" width="11" height="11" rx="2" fill="#161b22"><title>2024-07-19: 0 minutes of GPU activity</title></rect><rect x="94" y="78" width="11" height="11" rx="2" fill="#161b22"><title>2024-07-20: 0 minutes of GPU activity</title></rect><rect x="107" y="0" width="11" height="11" rx="2" fill="#161b22"><title>2024-07-21: 0 minutes of GPU activity</title></rect><rect x="107" y="13" width="11" height="11" rx="2" fill="#161b22"><title>2024-07-22: 0 minutes of GPU activity</title></rect><rect x="107" y="26" width="11" height="11" rx="2" fill="#161b22"><title>2024-07-23: 0 minutes of GPU activity</title></rect><rect x="107" y="39" width="11" height="11" rx="2" fill="#161b22"><title>2024-07-24: 0 minutes of GPU activity</title></rect><rect x="107" y="52" width="11" height="11" rx="2" fill="#161b22"><title>2024-07-25: 0 minutes of GPU activity</title></rect><rect x="107" y="65" width="11" height="11" rx="2" fill="#161b22"><title>2024-07-26: 0 minutes of GPU activity</title></rect><rect x="107" y="78" width="11" height="11" rx="2" fill="#161b22"><title>2024-07-27: 0 minutes of GPU activity</title></rect><rect x="120" y="0" width="11" height="11" rx="2" fill="#161b22"><title>2024-07-28: 0 minutes of GPU activity</title></rect><rect x="120" y="13" width="11" height="11" rx="2" fill="#161b22"><title>2024-07-29: 0 minutes of GPU activity</title></rect><rect x="120" y="26" width="11" height="11" rx="2" fill="#161b22"><title>2024-07-30: 0 minutes of GPU activity</title></rect><rect x="120" y="39" width="11" height="11" rx="2" fill="#161b22"><title>2024-07-31: 0 minutes of GPU activity</title></rect><rect x="120" y="52" width="11" height="11" rx="2" fill="#161b22"><title>2024-08-01: 0 minutes of GPU activity</title></rect><rect x="120" y="65" width="11" height="11" rx="2" fill="#161b22"><title>2024-08-02: 0 minutes of GPU activity</title></rect><rect x="120" y="78" width="11" height="11" rx="2" fill="#161b22"><title>2024-08-03: 0 minutes of GPU activity</title></rect><rect x="133" y="0" width="11" height="11" rx="2" fill="#161b22"><title>2024-08-04: 0 minutes of GPU activity</title></rect><rect x="133" y="13" width="11" height="11" rx="2" fill="#161b22"><title>2024-08-05: 0 minutes of GPU activity</title></rect><rect x="133" y="26" width="11" height="11" rx="2" fill="#161b22"><title>2024-08-06: 0 minutes of GPU activity</title></rect><rect x="133" y="39" width="11" height="11" rx="2" fill="#161b22"><title>2024-08-07: 0 minutes of GPU activity</title></rect><rect x="133" y="52" width="11" height="11" rx="2" fill="#161b22"><title>2024-08-08: 0 minutes of GPU activity</title></rect><rect x="133" y="65" width="11" height="11" rx="2" fill="#161b22"><title>2024-08-09: 0 minutes of GPU activity</title></rect><rect x="133" y="78" width="11" height="11" rx="2" fill="#161b22"><title>2024-08-10: 0 minutes of GPU activity</title></rect><rect x="146" y="0" width="11" height="11" rx="2" fill="#161b22"><title>2024-08-11: 0 minutes of GPU activity</title></rect><rect x="146" y="13" width="11" height="11" rx="2" fill="#161b22"><title>2024-08-12: 0 minutes of GPU activity</title></rect><rect x="146" y="26" width="11" height="11" rx="2" fill="#161b22"><title>2024-08-13: 0 minutes of GPU activity</title></rect><rect x="146" y="39" width="11" height="11" rx="2" fill="#161b22"><title>2024-08-14: 0 minutes of GPU activity</title></rect><rect x="146" y="52" width="11" height="11" rx="2" fill="#161b22"><title>2024-08-15: 0 minutes of GPU activity</title></rect><rect x="146" y="65" width="11" height="11" rx="2" fill="#161b22"><title>2024-08-16: 0 minutes of GPU activity</title></rect><rect x="146" y="78" width="11" height="11" rx="2" fill="#161b22"><title>2024-08-17: 0 minutes of GPU activity</title></rect><rect x="159" y="0" width="11" height="11" rx="2" fill="#161b22"><title>2024-08-18: 0 minutes of GPU activity</title></rect><rect x="159" y="13" width="11" height="11" rx="2" fill="#161b22"><title>2024-08-19: 0 minutes of GPU activity</title></rect><rect x="159" y="26" width="11" height="11" rx="2" fill="#161b22"><title>2024-08-20: 0 minutes of GPU activity</title></rect><rect x="159" y="39" width="11" height="11" rx="2" fill="#161b22"><title>2024-08-21: 0 minutes of GPU activity</title></rect><rect x="159" y="52" width="11" height="11" rx="2" fill="#161b22"><title>2024-08-22: 0 minutes of GPU activity</title></rect><rect x="159" y="65" width="11" height="11" rx="2" fill="#161b22"><title>2024-08-23: 0 minutes of GPU activity</title></rect><rect x="159" y="78" width="11" height="11" rx="2" fill="#161b22"><title>2024-08-24: 0 minutes of GPU activity</title></rect><rect x="172" y="0" width="11" height="11" rx="2" fill="#161b22"><title>2024-08-25: 0 minutes of GPU activity</title></rect><rect x="172" y="13" width="11" height="11" rx="2" fill="#161b22"><title>2024-08-26: 0 minutes of GPU activity</title></rect><rect x="172" y="26" width="11" height="11" rx="2" fill="#161b22"><title>2024-08-27: 0 minutes of GPU activity</title></rect><rect x="172" y="39" width="11" height="11" rx="2" fill="#161b22"><title>2024-08-28: 0 minutes of GPU activity</title></rect><rect x="172" y="52" width="11" height="11" rx="2" fill="#161b22"><title>2024-08-29: 0 minutes of GPU activity</title></rect><rect x="172" y="65" width="11" height="11" rx="2" fill="#161b22"><title>2024-08-30: 0 minutes of GPU activity</title></rect><rect x="172" y="78" width="11" height="11" rx="2" fill="#161b22"><title>2024-08-31: 0 minutes of GPU activity</title></rect><rect x="185" y="0" width="11" height="11" rx="2" fill="#161b22"><title>2024-09-01: 0 minutes of GPU activity</title></rect><rect x="185" y="13" width="11" height="11" rx="2" fill="#161b22"><title>2024-09-02: 0 minutes of GPU activity</title></rect><rect x="185" y="26" width="11" height="11" rx="2" fill="#161b22"><title>2024-09-03: 0 minutes of GPU activity</title></rect><rect x="185" y="39" width="11" height="11" rx="2" fill="#161b22"><title>2024-09-04: 0 minutes of GPU activity</title></rect><rect x="185" y="52" width="11" height="11" rx="2" fill="#161b22"><title>2024-09-05: 0 minutes of GPU activity</title></rect><rect x="185" y="65" width="11" height="11" rx="2" fill="#161b22"><title>2024-09-06: 0 minutes of GPU activity</title></rect><rect x="185" y="78" width="11" height="11" rx="2" fill="#161b22"><title>2024-09-07: 0 minutes of GPU activity</title></rect><rect x="198" y="0" width="11" height="11" rx="2" fill="#161b22"><title>2024-09-08: 0 minutes of GPU activity</title></rect><rect x="198" y="13" width="11" height="11" rx="2" fill="#161b22"><title>2024-09-09: 0 minutes of GPU activity</title></rect><rect x="198" y="26" width="11" height="11" rx="2" fill="#161b22"><title>2024-09-10: 0 minutes of GPU activity</title></rect><rect x="198" y="39" width="11" height="11" rx="2" fill="#161b22"><title>2024-09-11: 0 minutes of GPU activity</title></rect><rect x="198" y="52" width="11" height="11" rx="2" fill="#161b22"><title>2024-09-12: 0 minutes of GPU activity</title></rect><rect x="198" y="65" width="11" height="11" rx="2" fill="#161b22"><title>2024-09-13: 0 minutes of GPU activity</title></rect><rect x="198" y="78" width="11" height="11" rx="2" fill="#161b22"><title>2024-09-14: 0 minutes of GPU activity</title></rect><rect x="211" y="0" width="11" height="11" rx="2" fill="#161b22"><title>2024-09-15: 0 minutes of GPU activity</title></rect><rect x="211" y="13" width="11" height="11" rx="2" fill="#161b22"><title>2024-09-16: 0 minutes of GPU activity</title></rect><rect x="211" y="26" width="11" height="11" rx="2" fill="#161b22"><title>2024-09-17: 0 minutes of GPU activity</title></rect><rect x="211" y="39" width="11" height="11" rx="2" fill="#161b22"><title>2024-09-18: 0 minutes of GPU activity</title></rect><rect x="211" y="52" width="11" height="11" rx="2" fill="#161b22"><title>2024-09-19: 0 minutes of GPU activity</title></rect><rect x="211" y="65" width="11" height="11" rx="2" fill="#161b22"><title>2024-09-20: 0 minutes of GPU activity</title></rect><rect x="211" y="78" width="11" height="11" rx="2" fill="#161b22"><title>2024-09-21: 0 minutes of GPU activity</title></rect><rect x="224" y="0" width="11" height="11" rx="2" fill="#161b22"><title>2024-09-22: 0 minutes of GPU activity</title></rect><rect x="224" y="13" width="11" height="11" rx="2" fill="#161b22"><title>2024-09-23: 0 minutes of GPU activity</title></rect><rect x="224" y="26" width="11" height="11" rx="2" fill="#161b22"><title>2024-09-24: 0 minutes of GPU activity</title></rect><rect x="224" y="39" width="11" height="11" rx="2" fill="#161b22"><title>2024-09-25: 0 minutes of GPU activity</title></rect><rect x="224" y="52" width="11" height="11" rx="2" fill="#161b22"><title>2024-09-26: 0 minutes of GPU activity</title></rect><rect x="224" y="65" width="11" height="11" rx="2" fill="#161b22"><title>2024-09-27: 0 minutes of GPU activity</title></rect><rect x="224" y="78" width="11" height="11" rx="2" fill="#161b22"><title>2024-09-28: 0 minutes of GPU activity</title></rect><rect x="237" y="0" width="11" height="11" rx="2" fill="#161b22"><title>2024-09-29: 0 minutes of GPU activity</title></rect><rect x="237" y="13" width="11" height="11" rx="2" fill="#161b22"><title>2024-09-30: 0 minutes of GPU activity</title></rect><rect x="237" y="26" width="11" height="11" rx="2" fill="#161b22"><title>2024-10-01: 0 minutes of GPU activity</title></rect><rect x="237" y="39" width="11" height="11" rx="2" fill="#161b22"><title>2024-10-02: 0 minutes of GPU activity</title></rect><rect x="237" y="52" width="11" height="11" rx="2" fill="#161b22"><title>2024-10-03: 0 minutes of GPU activity</title></rect><rect x="237" y="65" width="11" height="11" rx="2" fill="#161b22"><title>2024-10-04: 0 minutes of GPU activity</title></rect><rect x="237" y="78" width="11" height="11" rx="2" fill="#161b22"><title>2024-10-05: 0 minutes of GPU activity</title></rect><rect x="250" y="0" width="11" height="11" rx="2" fill="#161b22"><title>2024-10-06: 0 minutes of GPU activity</title></rect><rect x="250" y="13" width="11" height="11" rx="2" fill="#161b22"><title>2024-10-07: 0 minutes of GPU activity</title></rect><rect x="250" y="26" width="11" height="11" rx="2" fill="#161b22"><title>2024-10-08: 0 minutes of GPU activity</title></rect><rect x="250" y="39" width="11" height="11" rx="2" fill="#161b22"><title>2024-10-09: 0 minutes of GPU activity</title></rect><rect x="250" y="52" width="11" height="11" rx="2" fill="#161b22"><title>2024-10-10: 0 minutes of GPU activity</title></rect><rect x="250" y="65" width="11" height="11" rx="2" fill="#161b22"><title>2024-10-11: 0 minutes of GPU activity</title></rect><rect x="250" y="78" width="11" height="11" rx="2" fill="#161b22"><title>2024-10-12: 0 minutes of GPU activity</title></rect><rect x="263" y="0" width="11" height="11" rx="2" fill="#161b22"><title>2024-10-13: 0 minutes of GPU activity</title></rect><rect x="263" y="13" width="11" height="11" rx="2" fill="#161b22"><title>2024-10-14: 0 minutes of GPU activity</title></rect><rect x="263" y="26" width="11" height="11" rx="2" fill="#161b22"><title>2024-10-15: 0 minutes of GPU activity</title></rect><rect x="263" y="39" width="11" height="11" rx="2" fill="#161b22"><title>2024-10-16: 0 minutes of GPU activity</title></rect><rect x="263" y="52" width="11" height="11" rx="2" fill="#161b22"><title>2024-10-17: 0 minutes of GPU activity</title></rect><rect x="263" y="65" width="11" height="11" rx="2" fill="#161b22"><title>2024-10-18: 0 minutes of GPU activity</title></rect><rect x="263" y="78" width="11" height="11" rx="2" fill="#161b22"><title>2024-10-19: 0 minutes of GPU activity</title></rect><rect x="276" y="0" width="11" height="11" rx="2" fill="#161b22"><title>2024-10-20: 0 minutes of GPU activity</title></rect><rect x="276" y="13" width="11" height="11" rx="2" fill="#161b22"><title>2024-10-21: 0 minutes of GPU activity</title></rect><rect x="276" y="26" width="11" height="11" rx="2" fill="#161b22"><title>2024-10-22: 0 minutes of GPU activity</title></rect><rect x="276" y="39" width="11" height="11" rx="2" fill="#161b22"><title>2024-10-23: 0 minutes of GPU activity</title></rect><rect x="276" y="52" width="11" height="11" rx="2" fill="#161b22"><title>2024-10-24: 0 minutes of GPU activity</title></rect><rect x="276" y="65" width="11" height="11" rx="2" fill="#161b22"><title>2024-10-25: 0 minutes of GPU activity</title></rect><rect x="276" y="78" width="11" height="11" rx="2" fill="#161b22"><title>2024-10-26: 0 minutes of GPU activity</title></rect><rect x="289" y="0" width="11" height="11" rx="2" fill="#161b22"><title>2024-10-27: 0 minutes of GPU activity</title></rect><rect x="289" y="13" width="11" height="11" rx="2" fill="#161b22"><title>2024-10-28: 0 minutes of GPU activity</title></rect><rect x="289" y="26" width="11" height="11" rx="2" fill="#161b22"><title>2024-10-29: 0 minutes of GPU activity</title></rect><rect x="289" y="39" width="11" height="11" rx="2" fill="#161b22"><title>2024-10-30: 0 minutes of GPU activity</title></rect><rect x="289" y="52" width="11" height="11" rx="2" fill="#161b22"><title>2024-10-31: 0 minutes of GPU activity</title></rect><rect x="289" y="65" width="11" height="11" rx="2" fill="#161b22"><title>2024-11-01: 0 minutes of GPU activity</title></rect><rect x="289" y="78" width="11" height="11" rx="2" fill="#161b22"><title>2024-11-02: 0 minutes of GPU activity</title></rect><rect x="302" y="0" width="11" height="11" rx="2" fill="#161b22"><title>2024-11-03: 0 minutes of GPU activity</title></rect><rect x="302" y="13" width="11" height="11" rx="2" fill="#161b22"><title>2024-11-04: 0 minutes of GPU activity</title></rect><rect x="302" y="26" width="11" height="11" rx="2" fill="#161b22"><title>2024-11-05: 0 minutes of GPU activity</title></rect><rect x="302" y="39" width="11" height="11" rx="2" fill="#161b22"><title>2024-11-06: 0 minutes of GPU activity</title></rect><rect x="302" y="52" width="11" height="11" rx="2" fill="#161b22"><title>2024-11-07: 0 minutes of GPU activity</title></rect><rect x="302" y="65" width="11" height="11" rx="2" fill="#161b22"><title>2024-11-08: 0 minutes of GPU activity</title></rect><rect x="302" y="78" width="11" height="11" rx="2" fill="#161b22"><title>2024-11-09: 0 minutes of GPU activity</title></rect><rect x="315" y="0" width="11" height="11" rx="2" fill="#161b22"><title>2024-11-10: 0 minutes of GPU activity</title></rect><rect x="315" y="13" width="11" height="11" rx="2" fill="#161b22"><title>2024-11-11: 0 minutes of GPU activity</title></rect><rect x="315" y="26" width="11" height="11" rx="2" fill="#161b22"><title>2024-11-12: 0 minutes of GPU activity</title></rect><rect x="315" y="39" width="11" height="11" rx="2" fill="#161b22"><title>2024-11-13: 0 minutes of GPU activity</title></rect><rect x="315" y="52" width="11" height="11" rx="2" fill="#161b22"><title>2024-11-14: 0 minutes of GPU activity</title></rect><rect x="315" y="65" width="11" height="11" rx="2" fill="#161b22"><title>2024-11-15: 0 minutes of GPU activity</title></rect><rect x="315" y="78" width="11" height="11" rx="2" fill="#161b22"><title>2024-11-16: 0 minutes of GPU activity</title></rect><rect x="328" y="0" width="11" height="11" rx="2" fill="#161b22"><title>2024-11-17: 0 minutes of GPU activity</title></rect><rect x="328" y="13" width="11" height="11" rx="2" fill="#161b22"><title>2024-11-18: 0 minutes of GPU activity</title></rect><rect x="328" y="26" width="11" height="11" rx="2" fill="#161b22"><title>2024-11-19: 0 minutes of GPU activity</title></rect><rect x="328" y="39" width="11" height="11" rx="2" fill="#161b22"><title>2024-11-20: 0 minutes of GPU activity</title></rect><rect x="328" y="52" width="11" height="11" rx="2" fill="#161b22"><title>2024-11-21: 0 minutes of GPU activity</title></rect><rect x="328" y="65" width="11" height="11" rx="2" fill="#161b22"><title>2024-11-22: 0 minutes of GPU activity</title></rect><rect x="328" y="78" width="11" height="11" rx="2" fill="#161b22"><title>2024-11-23: 0 minutes of GPU activity</title></rect><rect x="341" y="0" width="11" height="11" rx="2" fill="#161b22"><title>2024-11-24: 0 minutes of GPU activity</title></rect><rect x="341" y="13" width="11" height="11" rx="2" fill="#161b22"><title>2024-11-25: 0 minutes of GPU activity</title></rect><rect x="341" y="26" width="11" height="11" rx="2" fill="#161b22"><title>2024-11-26: 0 minutes of GPU activity</title></rect><rect x="341" y="39" width="11" height="11" rx="2" fill="#161b22"><title>2024-11-27: 0 minutes of GPU activity</title></rect><rect x="341" y="52" width="11" height="11" rx="2" fill="#161b22"><title>2024-11-28: 0 minutes of GPU activity</title></rect><rect x="341" y="65" width="11" height="11" rx="2" fill="#161b22"><title>2024-11-29: 0 minutes of GPU activity</title></rect><rect x="341" y="78" width="11" height="11" rx="2" fill="#161b22"><title>2024-11-30: 0 minutes of GPU activity</title></rect><rect x="354" y="0" width="11" height="11" rx="2" fill="#161b22"><title>2024-12-01: 0 minutes of GPU activity</title></rect><rect x="354" y="13" width="11" height="11" rx="2" fill="#161b22"><title>2024-12-02: 0 minutes of GPU activity</title></rect><rect x="354" y="26" width="11" height="11" rx="2" fill="#161b22"><title>2024-12-03: 0 minutes of GPU activity</title></rect><rect x="354" y="39" width="11" height="11" rx="2" fill="#161b22"><title>2024-12-04: 0 minutes of GPU activity</title></rect><rect x="354" y="52" width="11" height="11" rx="2" fill="#161b22"><title>2024-12-05: 0 minutes of GPU activity</title></rect><rect x="354" y="65" width="11" height="11" rx="2" fill="#161b22"><title>2024-12-06: 0 minutes of GPU activity</title></rect><rect x="354" y="78" width="11" height="11" rx="2" fill="#161b22"><title>2024-12-07: 0 minutes of GPU activity</title></rect><rect x="367" y="0" width="11" height="11" rx="2" fill="#161b22"><title>2024-12-08: 0 minutes of GPU activity</title></rect><rect x="367" y="13" width="11" height="11" rx="2" fill="#161b22"><title>2024-12-09: 0 minutes of GPU activity</title></rect><rect x="367" y="26" width="11" height="11" rx="2" fill="#161b22"><title>2024-12-10: 0 minutes of GPU activity</title></rect><rect x="367" y="39" width="11" height="11" rx="2" fill="#161b22"><title>2024-12-11: 0 minutes of GPU activity</title></rect><rect x="367" y="52" width="11" height="11" rx="2" fill="#161b22"><title>2024-12-12: 0 minutes of GPU activity</title></rect><rect x="367" y="65" width="11" height="11" rx="2" fill="#161b22"><title>2024-12-13: 0 minutes of GPU activity</title></rect><rect x="367" y="78" width="11" height="11" rx="2" fill="#161b22"><title>2024-12-14: 0 minutes of GPU activity</title></rect><rect x="380" y="0" width="11" height="11" rx="2" fill="#161b22"><title>2024-12-15: 0 minutes of GPU activity</title></rect><rect x="380" y="13" width="11" height="11" rx="2" fill="#161b22"><title>2024-12-16: 0 minutes of GPU activity</title></rect><rect x="380" y="26" width="11" height="11" rx="2" fill="#161b22"><title>2024-12-17: 0 minutes of GPU activity</title></rect><rect x="380" y="39" width="11" height="11" rx="2" fill="#161b22"><title>2024-12-18: 0 minutes of GPU activity</title></rect><rect x="380" y="52" width="11" height="11" rx="2" fill="#161b22"><title>2024-12-19: 0 minutes of GPU activity</title></rect><rect x="380" y="65" width="11" height="11" rx="2" fill="#161b22"><title>2024-12-20: 0 minutes of GPU activity</title></rect><rect x="380" y="78" width="11" height="11" rx="2" fill="#161b22"><title>2024-12-21: 0 minutes of GPU activity</title></rect><rect x="393" y="0" width="11" height="11" rx="2" fill="#161b22"><title>2024-12-22: 0 minutes of GPU activity</title></rect><rect x="393" y="13" width="11" height="11" rx="2" fill="#161b22"><title>2024-12-23: 0 minutes of GPU activity</title></rect><rect x="393" y="26" width="11" height="11" rx="2" fill="#161b22"><title>2024-12-24: 0 minutes of GPU activity</title></rect><rect x="393" y="39" width="11" height="11" rx="2" fill="#161b22"><title>2024-12-25: 0 minutes of GPU activity</title></rect><rect x="393" y="52" width="11" height="11" rx="2" fill="#161b22"><title>2024-12-26: 0 minutes of GPU activity</title></rect><rect x="393" y="65" width="11" height="11" rx="2" fill="#161b22"><title>2024-12-27: 0 minutes of GPU activity</title></rect><rect x="393" y="78" width="11" height="11" rx="2" fill="#161b22"><title>2024-12-28: 0 minutes of GPU activity</title></rect><rect x="406" y="0" width="11" height="11" rx="2" fill="#161b22"><title>2024-12-29: 0 minutes of GPU activity</title></rect><rect x="406" y="13" width="11" height="11" rx="2" fill="#161b22"><title>2024-12-30: 0 minutes of GPU activity</title></rect><rect x="406" y="26" width="11" height="11" rx="2" fill="#161b22"><title>2024-12-31: 0 minutes of GPU activity</title></rect><rect x="406" y="39" width="11" height="11" rx="2" fill="#161b22"><title>2025-01-01: 0 minutes of GPU activity</title></rect><rect x="406" y="52" width="11" height="11" rx="2" fill="#161b22"><title>2025-01-02: 0 minutes of GPU activity</title></rect><rect x="406" y="65" width="11" height="11" rx="2" fill="#161b22"><title>2025-01-03: 0 minutes of GPU activity</title></rect><rect x="406" y="78" width="11" height="11" rx="2" fill="#161b22"><title>2025-01-04: 0 minutes of GPU activity</title></rect><rect x="419" y="0" width="11" height="11" rx="2" fill="#161b22"><title>2025-01-05: 0 minutes of GPU activity</title></rect><rect x="419" y="13" width="11" height="11" rx="2" fill="#161b22"><title>2025-01-06: 0 minutes of GPU activity</title></rect><rect x="419" y="26" width="11" height="11" rx="2" fill="#161b22"><title>2025-01-07: 0 minutes of GPU activity</title></rect><rect x="419" y="39" width="11" height="11" rx="2" fill="#161b22"><title>2025-01-08: 0 minutes of GPU activity</title></rect><rect x="419" y="52" width="11" height="11" rx="2" fill="#161b22"><title>2025-01-09: 0 minutes of GPU activity</title></rect><rect x="419" y="65" width="11" height="11" rx="2" fill="#161b22"><title>2025-01-10: 0 minutes of GPU activity</title></rect><rect x="419" y="78" width="11" height="11" rx="2" fill="#161b22"><title>2025-01-11: 0 minutes of GPU activity</title></rect><rect x="432" y="0" width="11" height="11" rx="2" fill="#161b22"><title>2025-01-12: 0 minutes of GPU activity</title></rect><rect x="432" y="13" width="11" height="11" rx="2" fill="#161b22"><title>2025-01-13: 0 minutes of GPU activity</title></rect><rect x="432" y="26" width="11" height="11" rx="2" fill="#161b22"><title>2025-01-14: 0 minutes of GPU activity</title></rect><rect x="432" y="39" width="11" height="11" rx="2" fill="#161b22"><title>2025-01-15: 0 minutes of GPU activity</title></rect><rect x="432" y="52" width="11" height="11" rx="2" fill="#161b22"><title>2025-01-16: 0 minutes of GPU activity</title></rect><rect x="432" y="65" width="11" height="11" rx="2" fill="#161b22"><title>2025-01-17: 0 minutes of GPU activity</title></rect><rect x="432" y="78" width="11" height="11" rx="2" fill="#161b22"><title>2025-01-18: 0 minutes of GPU activity</title></rect><rect x="445" y="0" width="11" height="11" rx="2" fill="#161b22"><title>2025-01-19: 0 minutes of GPU activity</title></rect><rect x="445" y="13" width="11" height="11" rx="2" fill="#161b22"><title>2025-01-20: 0 minutes of GPU activity</title></rect><rect x="445" y="26" width="11" height="11" rx="2" fill="#161b22"><title>2025-01-21: 0 minutes of GPU activity</title></rect><rect x="445" y="39" width="11" height="11" rx="2" fill="#161b22"><title>2025-01-22: 0 minutes of GPU activity</title></rect><rect x="445" y="52" width="11" height="11" rx="2" fill="#161b22"><title>2025-01-23: 0 minutes of GPU activity</title></rect><rect x="445" y="65" width="11" height="11" rx="2" fill="#161b22"><title>2025-01-24: 0 minutes of GPU activity</title></rect><rect x="445" y="78" width="11" height="11" rx="2" fill="#161b22"><title>2025-01-25: 0 minutes of GPU activity</title></rect><rect x="458" y="0" width="11" height="11" rx="2" fill="#161b22"><title>2025-01-26: 0 minutes of GPU activity</title></rect><rect x="458" y="13" width="11" height="11" rx="2" fill="#161b22"><title>2025-01-27: 0 minutes of GPU activity</title></rect><rect x="458" y="26" width="11" height="11" rx="2" fill="#161b22"><title>2025-01-28: 0 minutes of GPU activity</title></rect><rect x="458" y="39" width="11" height="11" rx="2" fill="#161b22"><title>2025-01-29: 0 minutes of GPU activity</title></rect><rect x="458" y="52" width="11" height="11" rx="2" fill="#161b22"><title>2025-01-30: 0 minutes of GPU activity</title></rect><rect x="458" y="65" width="11" height="11" rx="2" fill="#161b22"><title>2025-01-31: 0 minutes of GPU activity</title></rect><rect x="458" y="78" width="11" height="11" rx="2" fill="#161b22"><title>2025-02-01: 0 minutes of GPU activity</title></rect><rect x="471" y="0" width="11" height="11" rx="2" fill="#161b22"><title>2025-02-02: 0 minutes of GPU activity</title></rect><rect x="471" y="13" width="11" height="11" rx="2" fill="#161b22"><title>2025-02-03: 0 minutes of GPU activity</title></rect><rect x="471" y="26" width="11" height="11" rx="2" fill="#161b22"><title>2025-02-04: 0 minutes of GPU activity</title></rect><rect x="471" y="39" width="11" height="11" rx="2" fill="#161b22"><title>2025-02-05: 0 minutes of GPU activity</title></rect><rect x="471" y="52" width="11" height="11" rx="2" fill="#161b22"><title>2025-02-06: 0 minutes of GPU activity</title></rect><rect x="471" y="65" width="11" height="11" rx="2" fill="#161b22"><title>2025-02-07: 0 minutes of GPU activity</title></rect><rect x="471" y="78" width="11" height="11" rx="2" fill="#161b22"><title>2025-02-08: 0 minutes of GPU activity</title></rect><rect x="484" y="0" width="11" height="11" rx="2" fill="#161b22"><title>2025-02-09: 0 minutes of GPU activity</title></rect><rect x="484" y="13" width="11" height="11" rx="2" fill="#161b22"><title>2025-02-10: 0 minutes of GPU activity</title></rect><rect x="484" y="26" width="11" height="11" rx="2" fill="#161b22"><title>2025-02-11: 0 minutes of GPU activity</title></rect><rect x="484" y="39" width="11" height="11" rx="2" fill="#161b22"><title>2025-02-12: 0 minutes of GPU activity</title></rect><rect x="484" y="52" width="11" height="11" rx="2" fill="#161b22"><title>2025-02-13: 0 minutes of GPU activity</title></rect><rect x="484" y="65" width="11" height="11" rx="2" fill="#161b22"><title>2025-02-14: 0 minutes of GPU activity</title></rect><rect x="484" y="78" width="11" height="11" rx="2" fill="#161b22"><title>2025-02-15: 0 minutes of GPU activity</title></rect><rect x="497" y="0" width="11" height="11" rx="2" fill="#161b22"><title>2025-02-16: 0 minutes of GPU activity</title></rect><rect x="497" y="13" width="11" height="11" rx="2" fill="#161b22"><title>2025-02-17: 0 minutes of GPU activity</title></rect><rect x="497" y="26" width="11" height="11" rx="2" fill="#161b22"><title>2025-02-18: 0 minutes of GPU activity</title></rect><rect x="497" y="39" width="11" height="11" rx="2" fill="#161b22"><title>2025-02-19: 0 minutes of GPU activity</title></rect><rect x="497" y="52" width="11" height="11" rx="2" fill="#161b22"><title>2025-02-20: 0 minutes of GPU activity</title></rect><rect x="497" y="65" width="11" height="11" rx="2" fill="#161b22"><title>2025-02-21: 0 minutes of GPU activity</title></rect><rect x="497" y="78" width="11" height="11" rx="2" fill="#161b22"><title>2025-02-22: 0 minutes of GPU activity</title></rect><rect x="510" y="0" width="11" height="11" rx="2" fill="#161b22"><title>2025-02-23: 0 minutes of GPU activity</title></rect><rect x="510" y="13" width="11" height="11" rx="2" fill="#161b22"><title>2025-02-24: 0 minutes of GPU activity</title></rect><rect x="510" y="26" width="11" height="11" rx="2" fill="#161b22"><title>2025-02-25: 0 minutes of GPU activity</title></rect><rect x="510" y="39" width="11" height="11" rx="2" fill="#161b22"><title>2025-02-26: 0 minutes of GPU activity</title></rect><rect x="510" y="52" width="11" height="11" rx="2" fill="#161b22"><title>2025-02-27: 0 minutes of GPU activity</title></rect><rect x="510" y="65" width="11" height="11" rx="2" fill="#161b22"><title>2025-02-28: 0 minutes of GPU activity</title></rect><rect x="510" y="78" width="11" height="11" rx="2" fill="#161b22"><title>2025-03-01: 0 minutes of GPU activity</title></rect><rect x="523" y="0" width="11" height="11" rx="2" fill="#161b22"><title>2025-03-02: 0 minutes of GPU activity</title></rect><rect x="523" y="13" width="11" height="11" rx="2" fill="#161b22"><title>2025-03-03: 0 minutes of GPU activity</title></rect><rect x="523" y="26" width="11" height="11" rx="2" fill="#161b22"><title>2025-03-04: 0 minutes of GPU activity</title></rect><rect x="523" y="39" width="11" height="11" rx="2" fill="#161b22"><title>2025-03-05: 0 minutes of GPU activity</title></rect><rect x="523" y="52" width="11" height="11" rx="2" fill="#161b22"><title>2025-03-06: 0 minutes of GPU activity</title></rect><rect x="523" y="65" width="11" height="11" rx="2" fill="#161b22"><title>2025-03-07: 0 minutes of GPU activity</title></rect><rect x="523" y="78" width="11" height="11" rx="2" fill="#161b22"><title>2025-03-08: 0 minutes of GPU activity</title></rect><rect x="536" y="0" width="11" height="11" rx="2" fill="#161b22"><title>2025-03-09: 0 minutes of GPU activity</title></rect><rect x="536" y="13" width="11" height="11" rx="2" fill="#161b22"><title>2025-03-10: 0 minutes of GPU activity</title></rect><rect x="536" y="26" width="11" height="11" rx="2" fill="#161b22"><title>2025-03-11: 0 minutes of GPU activity</title></rect><rect x="536" y="39" width="11" height="11" rx="2" fill="#161b22"><title>2025-03-12: 0 minutes of GPU activity</title></rect><rect x="536" y="52" width="11" height="11" rx="2" fill="#161b22"><title>2025-03-13: 0 minutes of GPU activity</title></rect><rect x="536" y="65" width="11" height="11" rx="2" fill="#161b22"><title>2025-03-14: 0 minutes of GPU activity</title></rect><rect x="536" y="78" width="11" height="11" rx="2" fill="#161b22"><title>2025-03-15: 0 minutes of GPU activity</title></rect><rect x="549" y="0" width="11" height="11" rx="2" fill="#161b22"><title>2025-03-16: 0 minutes of GPU activity</title></rect><rect x="549" y="13" width="11" height="11" rx="2" fill="#161b22"><title>2025-03-17: 0 minutes of GPU activity</title></rect><rect x="549" y="26" width="11" height="11" rx="2" fill="#161b22"><title>2025-03-18: 0 minutes of GPU activity</title></rect><rect x="549" y="39" width="11" height="11" rx="2" fill="#161b22"><title>2025-03-19: 0 minutes of GPU activity</title></rect><rect x="549" y="52" width="11" height="11" rx="2" fill="#161b22"><title>2025-03-20: 0 minutes of GPU activity</title></rect><rect x="549" y="65" width="11" height="11" rx="2" fill="#161b22"><title>2025-03-21: 0 minutes of GPU activity</title></rect><rect x="549" y="78" width="11" height="11" rx="2" fill="#161b22"><title>2025-03-22: 0 minutes of GPU activity</title></rect><rect x="562" y="0" width="11" height="11" rx="2" fill="#161b22"><title>2025-03-23: 0 minutes of GPU activity</title></rect><rect x="562" y="13" width="11" height="11" rx="2" fill="#161b22"><title>2025-03-24: 0 minutes of GPU activity</title></rect><rect x="562" y="26" width="11" height="11" rx="2" fill="#161b22"><title>2025-03-25: 0 minutes of GPU activity</title></rect><rect x="562" y="39" width="11" height="11" rx="2" fill="#161b22"><title>2025-03-26: 0 minutes of GPU activity</title></rect><rect x="562" y="52" width="11" height="11" rx="2" fill="#161b22"><title>2025-03-27: 0 minutes of GPU activity</title></rect><rect x="562" y="65" width="11" height="11" rx="2" fill="#161b22"><title>2025-03-28: 0 minutes of GPU activity</title></rect><rect x="562" y="78" width="11" height="11" rx="2" fill="#161b22"><title>2025-03-29: 0 minutes of GPU activity</title></rect><rect x="575" y="0" width="11" height="11" rx="2" fill="#161b22"><title>2025-03-30: 0 minutes of GPU activity</title></rect><rect x="575" y="13" width="11" height="11" rx="2" fill="#161b22"><title>2025-03-31: 0 minutes of GPU activity</title></rect><rect x="575" y="26" width="11" height="11" rx="2" fill="#161b22"><title>2025-04-01: 0 minutes of GPU activity</title></rect><rect x="575" y="39" width="11" height="11" rx="2" fill="#161b22"><title>2025-04-02: 0 minutes of GPU activity</title></rect><rect x="575" y="52" width="11" height="11" rx="2" fill="#161b22"><title>2025-04-03: 0 minutes of GPU activity</title></rect><rect x="575" y="65" width="11" height="11" rx="2" fill="#161b22"><title>2025-04-04: 0 minutes of GPU activity</title></rect><rect x="575" y="78" width="11" height="11" rx="2" fill="#161b22"><title>2025-04-05: 0 minutes of GPU activity</title></rect><rect x="588" y="0" width="11" height="11" rx="2" fill="#161b22"><title>2025-04-06: 0 minutes of GPU activity</title></rect><rect x="588" y="13" width="11" height="11" rx="2" fill="#161b22"><title>2025-04-07: 0 minutes of GPU activity</title></rect><rect x="588" y="26" width="11" height="11" rx="2" fill="#161b22"><title>2025-04-08: 0 minutes of GPU activity</title></rect><rect x="588" y="39" width="11" height="11" rx="2" fill="#161b22"><title>2025-04-09: 0 minutes of GPU activity</title></rect><rect x="588" y="52" width="11" height="11" rx="2" fill="#161b22"><title>2025-04-10: 0 minutes of GPU activity</title></rect><rect x="588" y="65" width="11" height="11" rx="2" fill="#161b22"><title>2025-04-11: 0 minutes of GPU activity</title></rect><rect x="588" y="78" width="11" height="11" rx="2" fill="#161b22"><title>2025-04-12: 0 minutes of GPU activity</title></rect><rect x="601" y="0" width="11" height="11" rx="2" fill="#161b22"><title>2025-04-13: 0 minutes of GPU activity</title></rect><rect x="601" y="13" width="11" height="11" rx="2" fill="#161b22"><title>2025-04-14: 0 minutes of GPU activity</title></rect><rect x="601" y="26" width="11" height="11" rx="2" fill="#161b22"><title>2025-04-15: 0 minutes of GPU activity</title></rect><rect x="601" y="39" width="11" height="11" rx="2" fill="#161b22"><title>2025-04-16: 0 minutes of GPU activity</title></rect><rect x="601" y="52" width="11" height="11" rx="2" fill="#161b22"><title>2025-04-17: 0 minutes of GPU activity</title></rect><rect x="601" y="65" width="11" height="11" rx="2" fill="#161b22"><title>2025-04-18: 0 minutes of GPU activity</title></rect><rect x="601" y="78" width="11" height="11" rx="2" fill="#161b22"><title>2025-04-19: 0 minutes of GPU activity</title></rect><rect x="614" y="0" width="11" height="11" rx="2" fill="#161b22"><title>2025-04-20: 0 minutes of GPU activity</title></rect><rect x="614" y="13" width="11" height="11" rx="2" fill="#161b22"><title>2025-04-21: 0 minutes of GPU activity</title></rect><rect x="614" y="26" width="11" height="11" rx="2" fill="#161b22"><title>2025-04-22: 0 minutes of GPU activity</title></rect><rect x="614" y="39" width="11" height="11" rx="2" fill="#161b22"><title>2025-04-23: 0 minutes of GPU activity</title></rect><rect x="614" y="52" width="11" height="11" rx="2" fill="#161b22"><title>2025-04-24: 0 minutes of GPU activity</title></rect><rect x="614" y="65" width="11" height="11" rx="2" fill="#161b22"><title>2025-04-25: 0 minutes of GPU activity</title></rect><rect x="614" y="78" width="11" height="11" rx="2" fill="#161b22"><title>2025-04-26: 0 minutes of GPU activity</title></rect><rect x="627" y="0" width="11" height="11" rx="2" fill="#161b22"><title>2025-04-27: 0 minutes of GPU activity</title></rect><rect x="627" y="13" width="11" height="11" rx="2" fill="#161b22"><title>2025-04-28: 0 minutes of GPU activity</title></rect><rect x="627" y="26" width="11" height="11" rx="2" fill="#161b22"><title>2025-04-29: 0 minutes of GPU activity</title></rect><rect x="627" y="39" width="11" height="11" rx="2" fill="#161b22"><title>2025-04-30: 0 minutes of GPU activity</title></rect><rect x="627" y="52" width="11" height="11" rx="2" fill="#161b22"><title>2025-05-01: 0 minutes of GPU activity</title></rect><rect x="627" y="65" width="11" height="11" rx="2" fill="#161b22"><title>2025-05-02: 0 minutes of GPU activity</title></rect><rect x="627" y="78" width="11" height="11" rx="2" fill="#161b22"><title>2025-05-03: 0 minutes of GPU activity</title></rect><rect x="640" y="0" width="11" height="11" rx="2" fill="#161b22"><title>2025-05-04: 0 minutes of GPU activity</title></rect><rect x="640" y="13" width="11" height="11" rx="2" fill="#161b22"><title>2025-05-05: 0 minutes of GPU activity</title></rect><rect x="640" y="26" width="11" height="11" rx="2" fill="#161b22"><title>2025-05-06: 0 minutes of GPU activity</title></rect><rect x="640" y="39" width="11" height="11" rx="2" fill="#161b22"><title>2025-05-07: 0 minutes of GPU activity</title></rect><rect x="640" y="52" width="11" height="11" rx="2" fill="#161b22"><title>2025-05-08: 0 minutes of GPU activity</title></rect><rect x="640" y="65" width="11" height="11" rx="2" fill="#161b22"><title>2025-05-09: 0 minutes of GPU activity</title></rect><rect x="640" y="78" width="11" height="11" rx="2" fill="#161b22"><title>2025-05-10: 0 minutes of GPU activity</title></rect><rect x="653" y="0" width="11" height="11" rx="2" fill="#161b22"><title>2025-05-11: 0 minutes of GPU activity</title></rect><rect x="653" y="13" width="11" height="11" rx="2" fill="#161b22"><title>2025-05-12: 0 minutes of GPU activity</title></rect><rect x="653" y="26" width="11" height="11" rx="2" fill="#161b22"><title>2025-05-13: 0 minutes of GPU activity</title></rect><rect x="653" y="39" width="11" height="11" rx="2" fill="#161b22"><title>2025-05-14: 0 minutes of GPU activity</title></rect><rect x="653" y="52" width="11" height="11" rx="2" fill="#161b22"><title>2025-05-15: 0 minutes of GPU activity</title></rect><rect x="653" y="65" width="11" height="11" rx="2" fill="#161b22"><title>2025-05-16: 0 minutes of GPU activity</title></rect><rect x="653" y="78" width="11" height="11" rx="2" fill="#161b22"><title>2025-05-17: 0 minutes of GPU activity</title></rect><rect x="666" y="0" width="11" height="11" rx="2" fill="#161b22"><title>2025-05-18: 0 minutes of GPU activity</title></rect><rect x="666" y="13" width="11" height="11" rx="2" fill="#161b22"><title>2025-05-19: 0 minutes of GPU activity</title></rect><rect x="666" y="26" width="11" height="11" rx="2" fill="#161b22"><title>2025-05-20: 0 minutes of GPU activity</title></rect><rect x="666" y="39" width="11" height="11" rx="2" fill="#161b22"><title>2025-05-21: 0 minutes of GPU activity</title></rect><rect x="666" y="52" width="11" height="11" rx="2" fill="#161b22"><title>2025-05-22: 0 minutes of GPU activity</title></rect><rect x="666" y="65" width="11" height="11" rx="2" fill="#161b22"><title>2025-05-23: 0 minutes of GPU activity</title></rect><rect x="666" y="78" width="11" height="11" rx="2" fill="#161b22"><title>2025-05-24: 0 minutes of GPU activity</title></rect><rect x="679" y="0" width="11" height="11" rx="2" fill="#161b22"><title>2025-05-25: 0 minutes of GPU activity</title></rect><rect x="679" y="13" width="11" height="11" rx="2" fill="#161b22"><title>2025-05-26: 0 minutes of GPU activity</title></rect><rect x="679" y="26" width="11" height="11" rx="2" fill="#161b22"><title>2025-05-27: 0 minutes of GPU activity</title></rect><rect x="679" y="39" width="11" height="11" rx="2" fill="#161b22"><title>2025-05-28: 0 minutes of GPU activity</title></rect><rect x="679" y="52" width="11" height="11" rx="2" fill="#26a641"><title>2025-05-29: 247 minutes of GPU activity</title></rect><rect x="679" y="65" width="11" height="11" rx="2" fill="#161b22"><title>2025-05-30: 0 minutes of GPU activity</title></rect><rect x="679" y="78" width="11" height="11" rx="2" fill="#161b22"><title>2025-05-31: 0 minutes of GPU activity</title></rect><rect x="692" y="0" width="11" height="11" rx="2" fill="#161b22"><title>2025-06-01: 0 minutes of GPU activity</title></rect><rect x="692" y="13" width="11" height="11" rx="2" fill="#39d353"><title>2025-06-02: 442 minutes of GPU activity</title></rect><rect x="692" y="26" width="11" height="11" rx="2" fill="#39d353"><title>2025-06-03: 387 minutes of GPU activity</title></rect><rect x="692" y="39" width="11" height="11" rx="2" fill="#39d353"><title>2025-06-04: 397 minutes of GPU activity</title></rect><rect x="692" y="52" width="11" height="11" rx="2" fill="#006d32"><title>2025-06-05: 165 minutes of GPU activity</title></rect><rect x="692" y="65" width="11" height="11" rx="2" fill="#26a641"><title>2025-06-06: 191 minutes of GPU activity</title></rect><rect x="692" y="78" width="11" height="11" rx="2" fill="#161b22"><title>2025-06-07: 0 minutes of GPU activity</title></rect><rect x="705" y="0" width="11" height="11" rx="2" fill="#161b22"><title>2025-06-08: 0 minutes of GPU activity</title></rect><rect x="705" y="13" width="11" height="11" rx="2" fill="#006d32"><title>2025-06-09: 171 minutes of GPU activity</title></rect><rect x="705" y="26" width="11" height="11" rx="2" fill="#161b22"><title>2025-06-10: 0 minutes of GPU activity</title></rect><rect x="705" y="39" width="11" height="11" rx="2" fill="#39d353"><title>2025-06-11: 387 minutes of GPU activity</title></rect><rect x="705" y="52" width="11" height="11" rx="2" fill="#26a641"><title>2025-06-12: 264 minutes of GPU activity</title></rect><rect x="705" y="65" width="11" height="11" rx="2" fill="#39d353"><title>2025-06-13: 389 minutes of GPU activity</title></rect><rect x="705" y="78" width="11" height="11" rx="2" fill="#161b22"><title>2025-06-14: 0 minutes of GPU activity</title></rect><rect x="718" y="0" width="11" height="11" rx="2" fill="#161b22"><title>2025-06-15: 0 minutes of GPU activity</title></rect><rect x="718" y="13" width="11" height="11" rx="2" fill="#26a641"><title>2025-06-16: 287 minutes of GPU activity</title></rect><rect x="718" y="26" width="11" height="11" rx="2" fill="#26a641"><title>2025-06-17: 353 minutes of GPU activity</title></rect><rect x="718" y="39" width="11" height="11" rx="2" fill="#39d353"><title>2025-06-18: 406 minutes of GPU activity</title></rect><rect x="718" y="52" width="11" height="11" rx="2" fill="#161b22"><title>2025-06-19: 0 minutes of GPU activity</title></rect>
    </g>
    <text x="29" y="130" fill="#7d8590" font-family="-apple-system, BlinkMacSystemFont, Segoe UI, Helvetica, Arial, sans-serif" font-size="11">
        13 active days | 0 day streak | 68 total hours
    </text>
</svg>