<svg width="760" height="130" xmlns="http://www.w3.org/2000/svg">
    <rect width="760" height="130" fill="#0d1117" rx="3"/>
    <text x="55" y="10" fill="#7d8590" font-size="10" font-family="-apple-system, BlinkMacSystemFont, Segoe UI, Helvetica, Arial, sans-serif">Jul</text><text x="107" y="10" fill="#7d8590" font-size="10" font-family="-apple-system, BlinkMacSystemFont, Segoe UI, Helvetica, Arial, sans-serif">Aug</text><text x="172" y="10" fill="#7d8590" font-size="10" font-family="-apple-system, BlinkMacSystemFont, Segoe UI, Helvetica, Arial, sans-serif">Sep</text><text x="224" y="10" fill="#7d8590" font-size="10" font-family="-apple-system, BlinkMacSystemFont, Segoe UI, Helvetica, Arial, sans-serif">Oct</text><text x="276" y="10" fill="#7d8590" font-size="10" font-family="-apple-system, BlinkMacSystemFont, Segoe UI, Helvetica, Arial, sans-serif">Nov</text><text x="341" y="10" fill="#7d8590" font-size="10" font-family="-apple-system, BlinkMacSystemFont, Segoe UI, Helvetica, Arial, sans-serif">Dec</text><text x="393" y="10" fill="#7d8590" font-size="10" font-family="-apple-system, BlinkMacSystemFont, Segoe UI, Helvetica, Arial, sans-serif">Jan</text><text x="445" y="10" fill="#7d8590" font-size="10" font-family="-apple-system, BlinkMacSystemFont, Segoe UI, Helvetica, Arial, sans-serif">Feb</text><text x="497" y="10" fill="#7d8590" font-size="10" font-family="-apple-system, BlinkMacSystemFont, Segoe UI, Helvetica, Arial, sans-serif">Mar</text><text x="562" y="10" fill="#7d8590" font-size="10" font-family="-apple-system, BlinkMacSystemFont, Segoe UI, Helvetica, Arial, sans-serif">Apr</text><text x="614" y="10" fill="#7d8590" font-size="10" font-family="-apple-system, BlinkMacSystemFont, Segoe UI, Helvetica, Arial, sans-serif">May</text><text x="679" y="10" fill="#7d8590" font-size="10" font-family="-apple-system, BlinkMacSystemFont, Segoe UI, Helvetica, Arial, sans-serif">Jun</text>
    <g transform="translate(0, 20)">
        <text x="0" y="24" fill="#7d8590" font-size="10" font-family="-apple-system, BlinkMacSystemFont, Segoe UI, Helvetica, Arial, sans-serif">M  </text><text x="0" y="50" fill="#7d8590" font-size="10" font-family="-apple-system, BlinkMacSystemFont, Segoe UI, Helvetica, Arial, sans-serif">W  </text><text x="0" y="76" fill="#7d8590" font-size="10" font-family="-apple-system, BlinkMacSystemFont, Segoe UI, Helvetica, Arial, sans-serif">F  </text>
        <rect x="13" y="0" width="11" height="11" rx="2" fill="#161b22"><title>2024-06-16: 0 minutes of GPU activity</title></rect><rect x="13" y="13" width="11" height="11" rx="2" fill="#161b22"><title>2024-06-17: 0 minutes of GPU activity</title></rect><rect x="13" y="26" width="11" height="11" rx="2" fill="#161b22"><title>2024-06-18: 0 minutes of GPU activity</title></rect><rect x="13" y="39" width="11" height="11" rx="2" fill="#161b22"><title>2024-06-19: 0 minutes of GPU activity</title></rect><rect x="13" y="52" width="11" height="11" rx="2" fill="#161b22"><title>2024-06-20: 0 minutes of GPU activity</title></rect><rect x="13" y="65" width="11" height="11" rx="2" fill="#161b22"><title>2024-06-21: 0 minutes of GPU activity</title></rect><rect x="13" y="78" width="11" height="11" rx="2" fill="#161b22"><title>2024-06-22: 0 minutes of GPU activity</title></rect><rect x="26" y="0" width="11" height="11" rx="2" fill="#161b22"><title>2024-06-23: 0 minutes of GPU activity</title></rect><rect x="26" y="13" width="11" height="11" rx="2" fill="#161b22"><title>2024-06-24: 0 minutes of GPU activity</title></rect><rect x="26" y="26" width="11" height="11" rx="2" fill="#161b22"><title>2024-06-25: 0 minutes of GPU activity</title></rect><rect x="26" y="39" width="11" height="11" rx="2" fill="#161b22"><title>2024-06-26: 0 minutes of GPU activity</title></rect><rect x="26" y="52" width="11" height="11" rx="2" fill="#161b22"><title>2024-06-27: 0 minutes of GPU activity</title></rect><rect x="26" y="65" width="11" height="11" rx="2" fill="#161b22"><title>2024-06-28: 0 minutes of GPU activity</title></rect><rect x="26" y="78" width="11" height="11" rx="2" fill="#161b22"><title>2024-06-29: 0 minutes of GPU activity</title></rect><rect x="39" y="0" width="11" height="11" rx="2" fill="#161b22"><title>2024-06-30: 0 minutes of GPU activity</title></rect><rect x="39" y="13" width="11" height="11" rx="2" fill="#161b22"><title>2024-07-01: 0 minutes of GPU activity</title></rect><rect x="39" y="26" width="11" height="11" rx="2" fill="#161b22"><title>2024-07-02: 0 minutes of GPU activity</title></rect><rect x="39" y="39" width="11" height="11" rx="2" fill="#161b22"><title>2024-07-03: 0 minutes of GPU activity</title></rect><rect x="39" y="52" width="11" height="11" rx="2" fill="#161b22"><title>2024-07-04: 0 minutes of GPU activity</title></rect><rect x="39" y="65" width="11" height="11" rx="2" fill="#161b22"><title>2024-07-05: 0 minutes of GPU activity</title></rect><rect x="39" y="78" width="11" height="11" rx="2" fill="#161b22"><title>2024-07-06: 0 minutes of GPU activity</title></rect><rect x="52" y="0" width="11" height="11" rx="2" fill="#161b22"><title>2024-07-07: 0 minutes of GPU activity</title></rect><rect x="52" y="13" width="11" height="11" rx="2" fill="#161b22"><title>2024-07-08: 0 minutes of GPU activity</title></rect><rect x="52" y="26" width="11" height="11" rx="2" fill="#161b22"><title>2024-07-09: 0 minutes of GPU activity</title></rect><rect x="52" y="39" width="11" height="11" rx="2" fill="#161b22"><title>2024-07-10: 0 minutes of GPU activity</title></rect><rect x="52" y="52" width="11" height="11" rx="2" fill="#161b22"><title>2024-07-11: 0 minutes of GPU activity</title></rect><rect x="52" y="65" width="11" height="11" rx="2" fill="#161b22"><title>2024-07-12: 0 minutes of GPU activity</title></rect><rect x="52" y="78" width="11" height="11" rx="2" fill="#161b22"><title>2024-07-13: 0 minutes of GPU activity</title></rect><rect x="65" y="0" width="11" height="11" rx="2" fill="#161b22"><title>2024-07-14: 0 minutes of GPU activity</title></rect><rect x="65" y="13" width="11" height="11" rx="2" fill="#161b22"><title>2024-07-15: 0 minutes of GPU activity</title></rect><rect x="65" y="26" width="11" height="11" rx="2" fill="#161b22"><title>2024-07-16: 0 minutes of GPU activity</title></rect><rect x="65" y="39" width="11" height="11" rx="2" fill="#161b22"><title>2024-07-17: 0 minutes of GPU activity</title></rect><rect x="65" y="52" width="11" height="11" rx="2" fill="#161b22"><title>2024-07-18: 0 minutes of GPU activity</title></rect><rect x="65" y="65" width="11" height="11" rx="2" fill="#161b22"><title>2024-07-19: 0 minutes of GPU activity</title></rect><rect x="65" y="78" width="11" height="11" rx="2" fill="#161b22"><title>2024-07-20: 0 minutes of GPU activity</title></rect><rect x="78" y="0" width="11" height="11" rx="2" fill="#161b22"><title>2024-07-21: 0 minutes of GPU activity</title></rect><rect x="78" y="13" width="11" height="11" rx="2" fill="#161b22"><title>2024-07-22: 0 minutes of GPU activity</title></rect><rect x="78" y="26" width="11" height="11" rx="2" fill="#161b22"><title>2024-07-23: 0 minutes of GPU activity</title></rect><rect x="78" y="39" width="11" height="11" rx="2" fill="#161b22"><title>2024-07-24: 0 minutes of GPU activity</title></rect><rect x="78" y="52" width="11" height="11" rx="2" fill="#161b22"><title>2024-07-25: 0 minutes of GPU activity</title></rect><rect x="78" y="65" width="11" height="11" rx="2" fill="#161b22"><title>2024-07-26: 0 minutes of GPU activity</title></rect><rect x="78" y="78" width="11" height="11" rx="2" fill="#161b22"><title>2024-07-27: 0 minutes of GPU activity</title></rect><rect x="91" y="0" width="11" height="11" rx="2" fill="#161b22"><title>2024-07-28: 0 minutes of GPU activity</title></rect><rect x="91" y="13" width="11" height="11" rx="2" fill="#161b22"><title>2024-07-29: 0 minutes of GPU activity</title></rect><rect x="91" y="26" width="11" height="11" rx="2" fill="#161b22"><title>2024-07-30: 0 minutes of GPU activity</title></rect><rect x="91" y="39" width="11" height="11" rx="2" fill="#161b22"><title>2024-07-31: 0 minutes of GPU activity</title></rect><rect x="91" y="52" width="11" height="11" rx="2" fill="#161b22"><title>2024-08-01: 0 minutes of GPU activity</title></rect><rect x="91" y="65" width="11" height="11" rx="2" fill="#161b22"><title>2024-08-02: 0 minutes of GPU activity</title></rect><rect x="91" y="78" width="11" height="11" rx="2" fill="#161b22"><title>2024-08-03: 0 minutes of GPU activity</title></rect><rect x="104" y="0" width="11" height="11" rx="2" fill="#161b22"><title>2024-08-04: 0 minutes of GPU activity</title></rect><rect x="104" y="13" width="11" height="11" rx="2" fill="#161b22"><title>2024-08-05: 0 minutes of GPU activity</title></rect><rect x="104" y="26" width="11" height="11" rx="2" fill="#161b22"><title>2024-08-06: 0 minutes of GPU activity</title></rect><rect x="104" y="39" width="11" height="11" rx="2" fill="#161b22"><title>2024-08-07: 0 minutes of GPU activity</title></rect><rect x="104" y="52" width="11" height="11" rx="2" fill="#161b22"><title>2024-08-08: 0 minutes of GPU activity</title></rect><rect x="104" y="65" width="11" height="11" rx="2" fill="#161b22"><title>2024-08-09: 0 minutes of GPU activity</title></rect><rect x="104" y="78" width="11" height="11" rx="2" fill="#161b22"><title>2024-08-10: 0 minutes of GPU activity</title></rect><rect x="117" y="0" width="11" height="11" rx="2" fill="#161b22"><title>2024-08-11: 0 minutes of GPU activity</title></rect><rect x="117" y="13" width="11" height="11" rx="2" fill="#161b22"><title>2024-08-12: 0 minutes of GPU activity</title></rect><rect x="117" y="26" width="11" height="11" rx="2" fill="#161b22"><title>2024-08-13: 0 minutes of GPU activity</title></rect><rect x="117" y="39" width="11" height="11" rx="2" fill="#161b22"><title>2024-08-14: 0 minutes of GPU activity</title></rect><rect x="117" y="52" width="11" height="11" rx="2" fill="#161b22"><title>2024-08-15: 0 minutes of GPU activity</title></rect><rect x="117" y="65" width="11" height="11" rx="2" fill="#161b22"><title>2024-08-16: 0 minutes of GPU activity</title></rect><rect x="117" y="78" width="11" height="11" rx="2" fill="#161b22"><title>2024-08-17: 0 minutes of GPU activity</title></rect><rect x="130" y="0" width="11" height="11" rx="2" fill="#161b22"><title>2024-08-18: 0 minutes of GPU activity</title></rect><rect x="130" y="13" width="11" height="11" rx="2" fill="#161b22"><title>2024-08-19: 0 minutes of GPU activity</title></rect><rect x="130" y="26" width="11" height="11" rx="2" fill="#161b22"><title>2024-08-20: 0 minutes of GPU activity</title></rect><rect x="130" y="39" width="11" height="11" rx="2" fill="#161b22"><title>2024-08-21: 0 minutes of GPU activity</title></rect><rect x="130" y="52" width="11" height="11" rx="2" fill="#161b22"><title>2024-08-22: 0 minutes of GPU activity</title></rect><rect x="130" y="65" width="11" height="11" rx="2" fill="#161b22"><title>2024-08-23: 0 minutes of GPU activity</title></rect><rect x="130" y="78" width="11" height="11" rx="2" fill="#161b22"><title>2024-08-24: 0 minutes of GPU activity</title></rect><rect x="143" y="0" width="11" height="11" rx="2" fill="#161b22"><title>2024-08-25: 0 minutes of GPU activity</title></rect><rect x="143" y="13" width="11" height="11" rx="2" fill="#161b22"><title>2024-08-26: 0 minutes of GPU activity</title></rect><rect x="143" y="26" width="11" height="11" rx="2" fill="#161b22"><title>2024-08-27: 0 minutes of GPU activity</title></rect><rect x="143" y="39" width="11" height="11" rx="2" fill="#161b22"><title>2024-08-28: 0 minutes of GPU activity</title></rect><rect x="143" y="52" width="11" height="11" rx="2" fill="#161b22"><title>2024-08-29: 0 minutes of GPU activity</title></rect><rect x="143" y="65" width="11" height="11" rx="2" fill="#161b22"><title>2024-08-30: 0 minutes of GPU activity</title></rect><rect x="143" y="78" width="11" height="11" rx="2" fill="#161b22"><title>2024-08-31: 0 minutes of GPU activity</title></rect><rect x="156" y="0" width="11" height="11" rx="2" fill="#161b22"><title>2024-09-01: 0 minutes of GPU activity</title></rect><rect x="156" y="13" width="11" height="11" rx="2" fill="#161b22"><title>2024-09-02: 0 minutes of GPU activity</title></rect><rect x="156" y="26" width="11" height="11" rx="2" fill="#161b22"><title>2024-09-03: 0 minutes of GPU activity</title></rect><rect x="156" y="39" width="11" height="11" rx="2" fill="#161b22"><title>2024-09-04: 0 minutes of GPU activity</title></rect><rect x="156" y="52" width="11" height="11" rx="2" fill="#161b22"><title>2024-09-05: 0 minutes of GPU activity</title></rect><rect x="156" y="65" width="11" height="11" rx="2" fill="#161b22"><title>2024-09-06: 0 minutes of GPU activity</title></rect><rect x="156" y="78" width="11" height="11" rx="2" fill="#161b22"><title>2024-09-07: 0 minutes of GPU activity</title></rect><rect x="169" y="0" width="11" height="11" rx="2" fill="#161b22"><title>2024-09-08: 0 minutes of GPU activity</title></rect><rect x="169" y="13" width="11" height="11" rx="2" fill="#161b22"><title>2024-09-09: 0 minutes of GPU activity</title></rect><rect x="169" y="26" width="11" height="11" rx="2" fill="#161b22"><title>2024-09-10: 0 minutes of GPU activity</title></rect><rect x="169" y="39" width="11" height="11" rx="2" fill="#161b22"><title>2024-09-11: 0 minutes of GPU activity</title></rect><rect x="169" y="52" width="11" height="11" rx="2" fill="#161b22"><title>2024-09-12: 0 minutes of GPU activity</title></rect><rect x="169" y="65" width="11" height="11" rx="2" fill="#161b22"><title>2024-09-13: 0 minutes of GPU activity</title></rect><rect x="169" y="78" width="11" height="11" rx="2" fill="#161b22"><title>2024-09-14: 0 minutes of GPU activity</title></rect><rect x="182" y="0" width="11" height="11" rx="2" fill="#161b22"><title>2024-09-15: 0 minutes of GPU activity</title></rect><rect x="182" y="13" width="11" height="11" rx="2" fill="#161b22"><title>2024-09-16: 0 minutes of GPU activity</title></rect><rect x="182" y="26" width="11" height="11" rx="2" fill="#161b22"><title>2024-09-17: 0 minutes of GPU activity</title></rect><rect x="182" y="39" width="11" height="11" rx="2" fill="#161b22"><title>2024-09-18: 0 minutes of GPU activity</title></rect><rect x="182" y="52" width="11" height="11" rx="2" fill="#161b22"><title>2024-09-19: 0 minutes of GPU activity</title></rect><rect x="182" y="65" width="11" height="11" rx="2" fill="#161b22"><title>2024-09-20: 0 minutes of GPU activity</title></rect><rect x="182" y="78" width="11" height="11" rx="2" fill="#161b22"><title>2024-09-21: 0 minutes of GPU activity</title></rect><rect x="195" y="0" width="11" height="11" rx="2" fill="#161b22"><title>2024-09-22: 0 minutes of GPU activity</title></rect><rect x="195" y="13" width="11" height="11" rx="2" fill="#161b22"><title>2024-09-23: 0 minutes of GPU activity</title></rect><rect x="195" y="26" width="11" height="11" rx="2" fill="#161b22"><title>2024-09-24: 0 minutes of GPU activity</title></rect><rect x="195" y="39" width="11" height="11" rx="2" fill="#161b22"><title>2024-09-25: 0 minutes of GPU activity</title></rect><rect x="195" y="52" width="11" height="11" rx="2" fill="#161b22"><title>2024-09-26: 0 minutes of GPU activity</title></rect><rect x="195" y="65" width="11" height="11" rx="2" fill="#161b22"><title>2024-09-27: 0 minutes of GPU activity</title></rect><rect x="195" y="78" width="11" height="11" rx="2" fill="#161b22"><title>2024-09-28: 0 minutes of GPU activity</title></rect><rect x="208" y="0" width="11" height="11" rx="2" fill="#161b22"><title>2024-09-29: 0 minutes of GPU activity</title></rect><rect x="208" y="13" width="11" height="11" rx="2" fill="#161b22"><title>2024-09-30: 0 minutes of GPU activity</title></rect><rect x="208" y="26" width="11" height="11" rx="2" fill="#161b22"><title>2024-10-01: 0 minutes of GPU activity</title></rect><rect x="208" y="39" width="11" height="11" rx="2" fill="#161b22"><title>2024-10-02: 0 minutes of GPU activity</title></rect><rect x="208" y="52" width="11" height="11" rx="2" fill="#161b22"><title>2024-10-03: 0 minutes of GPU activity</title></rect><rect x="208" y="65" width="11" height="11" rx="2" fill="#161b22"><title>2024-10-04: 0 minutes of GPU activity</title></rect><rect x="208" y="78" width="11" height="11" rx="2" fill="#161b22"><title>2024-10-05: 0 minutes of GPU activity</title></rect><rect x="221" y="0" width="11" height="11" rx="2" fill="#161b22"><title>2024-10-06: 0 minutes of GPU activity</title></rect><rect x="221" y="13" width="11" height="11" rx="2" fill="#161b22"><title>2024-10-07: 0 minutes of GPU activity</title></rect><rect x="221" y="26" width="11" height="11" rx="2" fill="#161b22"><title>2024-10-08: 0 minutes of GPU activity</title></rect><rect x="221" y="39" width="11" height="11" rx="2" fill="#161b22"><title>2024-10-09: 0 minutes of GPU activity</title></rect><rect x="221" y="52" width="11" height="11" rx="2" fill="#161b22"><title>2024-10-10: 0 minutes of GPU activity</title></rect><rect x="221" y="65" width="11" height="11" rx="2" fill="#161b22"><title>2024-10-11: 0 minutes of GPU activity</title></rect><rect x="221" y="78" width="11" height="11" rx="2" fill="#161b22"><title>2024-10-12: 0 minutes of GPU activity</title></rect><rect x="234" y="0" width="11" height="11" rx="2" fill="#161b22"><title>2024-10-13: 0 minutes of GPU activity</title></rect><rect x="234" y="13" width="11" height="11" rx="2" fill="#161b22"><title>2024-10-14: 0 minutes of GPU activity</title></rect><rect x="234" y="26" width="11" height="11" rx="2" fill="#161b22"><title>2024-10-15: 0 minutes of GPU activity</title></rect><rect x="234" y="39" width="11" height="11" rx="2" fill="#161b22"><title>2024-10-16: 0 minutes of GPU activity</title></rect><rect x="234" y="52" width="11" height="11" rx="2" fill="#161b22"><title>2024-10-17: 0 minutes of GPU activity</title></rect><rect x="234" y="65" width="11" height="11" rx="2" fill="#161b22"><title>2024-10-18: 0 minutes of GPU activity</title></rect><rect x="234" y="78" width="11" height="11" rx="2" fill="#161b22"><title>2024-10-19: 0 minutes of GPU activity</title></rect><rect x="247" y="0" width="11" height="11" rx="2" fill="#161b22"><title>2024-10-20: 0 minutes of GPU activity</title></rect><rect x="247" y="13" width="11" height="11" rx="2" fill="#161b22"><title>2024-10-21: 0 minutes of GPU activity</title></rect><rect x="247" y="26" width="11" height="11" rx="2" fill="#161b22"><title>2024-10-22: 0 minutes of GPU activity</title></rect><rect x="247" y="39" width="11" height="11" rx="2" fill="#161b22"><title>2024-10-23: 0 minutes of GPU activity</title></rect><rect x="247" y="52" width="11" height="11" rx="2" fill="#161b22"><title>2024-10-24: 0 minutes of GPU activity</title></rect><rect x="247" y="65" width="11" height="11" rx="2" fill="#161b22"><title>2024-10-25: 0 minutes of GPU activity</title></rect><rect x="247" y="78" width="11" height="11" rx="2" fill="#161b22"><title>2024-10-26: 0 minutes of GPU activity</title></rect><rect x="260" y="0" width="11" height="11" rx="2" fill="#161b22"><title>2024-10-27: 0 minutes of GPU activity</title></rect><rect x="260" y="13" width="11" height="11" rx="2" fill="#161b22"><title>2024-10-28: 0 minutes of GPU activity</title></rect><rect x="260" y="26" width="11" height="11" rx="2" fill="#161b22"><title>2024-10-29: 0 minutes of GPU activity</title></rect><rect x="260" y="39" width="11" height="11" rx="2" fill="#161b22"><title>2024-10-30: 0 minutes of GPU activity</title></rect><rect x="260" y="52" width="11" height="11" rx="2" fill="#161b22"><title>2024-10-31: 0 minutes of GPU activity</title></rect><rect x="260" y="65" width="11" height="11" rx="2" fill="#161b22"><title>2024-11-01: 0 minutes of GPU activity</title></rect><rect x="260" y="78" width="11" height="11" rx="2" fill="#161b22"><title>2024-11-02: 0 minutes of GPU activity</title></rect><rect x="273" y="0" width="11" height="11" rx="2" fill="#161b22"><title>2024-11-03: 0 minutes of GPU activity</title></rect><rect x="273" y="13" width="11" height="11" rx="2" fill="#161b22"><title>2024-11-04: 0 minutes of GPU activity</title></rect><rect x="273" y="26" width="11" height="11" rx="2" fill="#161b22"><title>2024-11-05: 0 minutes of GPU activity</title></rect><rect x="273" y="39" width="11" height="11" rx="2" fill="#161b22"><title>2024-11-06: 0 minutes of GPU activity</title></rect><rect x="273" y="52" width="11" height="11" rx="2" fill="#161b22"><title>2024-11-07: 0 minutes of GPU activity</title></rect><rect x="273" y="65" width="11" height="11" rx="2" fill="#161b22"><title>2024-11-08: 0 minutes of GPU activity</title></rect><rect x="273" y="78" width="11" height="11" rx="2" fill="#161b22"><title>2024-11-09: 0 minutes of GPU activity</title></rect><rect x="286" y="0" width="11" height="11" rx="2" fill="#161b22"><title>2024-11-10: 0 minutes of GPU activity</title></rect><rect x="286" y="13" width="11" height="11" rx="2" fill="#161b22"><title>2024-11-11: 0 minutes of GPU activity</title></rect><rect x="286" y="26" width="11" height="11" rx="2" fill="#161b22"><title>2024-11-12: 0 minutes of GPU activity</title></rect><rect x="286" y="39" width="11" height="11" rx="2" fill="#161b22"><title>2024-11-13: 0 minutes of GPU activity</title></rect><rect x="286" y="52" width="11" height="11" rx="2" fill="#161b22"><title>2024-11-14: 0 minutes of GPU activity</title></rect><rect x="286" y="65" width="11" height="11" rx="2" fill="#161b22"><title>2024-11-15: 0 minutes of GPU activity</title></rect><rect x="286" y="78" width="11" height="11" rx="2" fill="#161b22"><title>2024-11-16: 0 minutes of GPU activity</title></rect><rect x="299" y="0" width="11" height="11" rx="2" fill="#161b22"><title>2024-11-17: 0 minutes of GPU activity</title></rect><rect x="299" y="13" width="11" height="11" rx="2" fill="#161b22"><title>2024-11-18: 0 minutes of GPU activity</title></rect><rect x="299" y="26" width="11" height="11" rx="2" fill="#161b22"><title>2024-11-19: 0 minutes of GPU activity</title></rect><rect x="299" y="39" width="11" height="11" rx="2" fill="#161b22"><title>2024-11-20: 0 minutes of GPU activity</title></rect><rect x="299" y="52" width="11" height="11" rx="2" fill="#161b22"><title>2024-11-21: 0 minutes of GPU activity</title></rect><rect x="299" y="65" width="11" height="11" rx="2" fill="#161b22"><title>2024-11-22: 0 minutes of GPU activity</title></rect><rect x="299" y="78" width="11" height="11" rx="2" fill="#161b22"><title>2024-11-23: 0 minutes of GPU activity</title></rect><rect x="312" y="0" width="11" height="11" rx="2" fill="#161b22"><title>2024-11-24: 0 minutes of GPU activity</title></rect><rect x="312" y="13" width="11" height="11" rx="2" fill="#161b22"><title>2024-11-25: 0 minutes of GPU activity</title></rect><rect x="312" y="26" width="11" height="11" rx="2" fill="#161b22"><title>2024-11-26: 0 minutes of GPU activity</title></rect><rect x="312" y="39" width="11" height="11" rx="2" fill="#161b22"><title>2024-11-27: 0 minutes of GPU activity</title></rect><rect x="312" y="52" width="11" height="11" rx="2" fill="#161b22"><title>2024-11-28: 0 minutes of GPU activity</title></rect><rect x="312" y="65" width="11" height="11" rx="2" fill="#161b22"><title>2024-11-29: 0 minutes of GPU activity</title></rect><rect x="312" y="78" width="11" height="11" rx="2" fill="#161b22"><title>2024-11-30: 0 minutes of GPU activity</title></rect><rect x="325" y="0" width="11" height="11" rx="2" fill="#161b22"><title>2024-12-01: 0 minutes of GPU activity</title></rect><rect x="325" y="13" width="11" height="11" rx="2" fill="#161b22"><title>2024-12-02: 0 minutes of GPU activity</title></rect><rect x="325" y="26" width="11" height="11" rx="2" fill="#161b22"><title>2024-12-03: 0 minutes of GPU activity</title></rect><rect x="325" y="39" width="11" height="11" rx="2" fill="#161b22"><title>2024-12-04: 0 minutes of GPU activity</title></rect><rect x="325" y="52" width="11" height="11" rx="2" fill="#161b22"><title>2024-12-05: 0 minutes of GPU activity</title></rect><rect x="325" y="65" width="11" height="11" rx="2" fill="#161b22"><title>2024-12-06: 0 minutes of GPU activity</title></rect><rect x="325" y="78" width="11" height="11" rx="2" fill="#161b22"><title>2024-12-07: 0 minutes of GPU activity</title></rect><rect x="338" y="0" width="11" height="11" rx="2" fill="#161b22"><title>2024-12-08: 0 minutes of GPU activity</title></rect><rect x="338" y="13" width="11" height="11" rx="2" fill="#161b22"><title>2024-12-09: 0 minutes of GPU activity</title></rect><rect x="338" y="26" width="11" height="11" rx="2" fill="#161b22"><title>2024-12-10: 0 minutes of GPU activity</title></rect><rect x="338" y="39" width="11" height="11" rx="2" fill="#161b22"><title>2024-12-11: 0 minutes of GPU activity</title></rect><rect x="338" y="52" width="11" height="11" rx="2" fill="#161b22"><title>2024-12-12: 0 minutes of GPU activity</title></rect><rect x="338" y="65" width="11" height="11" rx="2" fill="#161b22"><title>2024-12-13: 0 minutes of GPU activity</title></rect><rect x="338" y="78" width="11" height="11" rx="2" fill="#161b22"><title>2024-12-14: 0 minutes of GPU activity</title></rect><rect x="351" y="0" width="11" height="11" rx="2" fill="#161b22"><title>2024-12-15: 0 minutes of GPU activity</title></rect><rect x="351" y="13" width="11" height="11" rx="2" fill="#161b22"><title>2024-12-16: 0 minutes of GPU activity</title></rect><rect x="351" y="26" width="11" height="11" rx="2" fill="#161b22"><title>2024-12-17: 0 minutes of GPU activity</title></rect><rect x="351" y="39" width="11" height="11" rx="2" fill="#161b22"><title>2024-12-18: 0 minutes of GPU activity</title></rect><rect x="351" y="52" width="11" height="11" rx="2" fill="#161b22"><title>2024-12-19: 0 minutes of GPU activity</title></rect><rect x="351" y="65" width="11" height="11" rx="2" fill="#161b22"><title>2024-12-20: 0 minutes of GPU activity</title></rect><rect x="351" y="78" width="11" height="11" rx="2" fill="#161b22"><title>2024-12-21: 0 minutes of GPU activity</title></rect><rect x="364" y="0" width="11" height="11" rx="2" fill="#161b22"><title>2024-12-22: 0 minutes of GPU activity</title></rect><rect x="364" y="13" width="11" height="11" rx="2" fill="#161b22"><title>2024-12-23: 0 minutes of GPU activity</title></rect><rect x="364" y="26" width="11" height="11" rx="2" fill="#161b22"><title>2024-12-24: 0 minutes of GPU activity</title></rect><rect x="364" y="39" width="11" height="11" rx="2" fill="#161b22"><title>2024-12-25: 0 minutes of GPU activity</title></rect><rect x="364" y="52" width="11" height="11" rx="2" fill="#161b22"><title>2024-12-26: 0 minutes of GPU activity</title></rect><rect x="364" y="65" width="11" height="11" rx="2" fill="#161b22"><title>2024-12-27: 0 minutes of GPU activity</title></rect><rect x="364" y="78" width="11" height="11" rx="2" fill="#161b22"><title>2024-12-28: 0 minutes of GPU activity</title></rect><rect x="377" y="0" width="11" height="11" rx="2" fill="#161b22"><title>2024-12-29: 0 minutes of GPU activity</title></rect><rect x="377" y="13" width="11" height="11" rx="2" fill="#161b22"><title>2024-12-30: 0 minutes of GPU activity</title></rect><rect x="377" y="26" width="11" height="11" rx="2" fill="#161b22"><title>2024-12-31: 0 minutes of GPU activity</title></rect><rect x="377" y="39" width="11" height="11" rx="2" fill="#161b22"><title>2025-01-01: 0 minutes of GPU activity</title></rect><rect x="377" y="52" width="11" height="11" rx="2" fill="#161b22"><title>2025-01-02: 0 minutes of GPU activity</title></rect><rect x="377" y="65" width="11" height="11" rx="2" fill="#161b22"><title>2025-01-03: 0 minutes of GPU activity</title></rect><rect x="377" y="78" width="11" height="11" rx="2" fill="#161b22"><title>2025-01-04: 0 minutes of GPU activity</title></rect><rect x="390" y="0" width="11" height="11" rx="2" fill="#161b22"><title>2025-01-05: 0 minutes of GPU activity</title></rect><rect x="390" y="13" width="11" height="11" rx="2" fill="#161b22"><title>2025-01-06: 0 minutes of GPU activity</title></rect><rect x="390" y="26" width="11" height="11" rx="2" fill="#161b22"><title>2025-01-07: 0 minutes of GPU activity</title></rect><rect x="390" y="39" width="11" height="11" rx="2" fill="#161b22"><title>2025-01-08: 0 minutes of GPU activity</title></rect><rect x="390" y="52" width="11" height="11" rx="2" fill="#161b22"><title>2025-01-09: 0 minutes of GPU activity</title></rect><rect x="390" y="65" width="11" height="11" rx="2" fill="#161b22"><title>2025-01-10: 0 minutes of GPU activity</title></rect><rect x="390" y="78" width="11" height="11" rx="2" fill="#161b22"><title>2025-01-11: 0 minutes of GPU activity</title></rect><rect x="403" y="0" width="11" height="11" rx="2" fill="#161b22"><title>2025-01-12: 0 minutes of GPU activity</title></rect><rect x="403" y="13" width="11" height="11" rx="2" fill="#161b22"><title>2025-01-13: 0 minutes of GPU activity</title></rect><rect x="403" y="26" width="11" height="11" rx="2" fill="#161b22"><title>2025-01-14: 0 minutes of GPU activity</title></rect><rect x="403" y="39" width="11" height="11" rx="2" fill="#161b22"><title>2025-01-15: 0 minutes of GPU activity</title></rect><rect x="403" y="52" width="11" height="11" rx="2" fill="#161b22"><title>2025-01-16: 0 minutes of GPU activity</title></rect><rect x="403" y="65" width="11" height="11" rx="2" fill="#161b22"><title>2025-01-17: 0 minutes of GPU activity</title></rect><rect x="403" y="78" width="11" height="11" rx="2" fill="#161b22"><title>2025-01-18: 0 minutes of GPU activity</title></rect><rect x="416" y="0" width="11" height="11" rx="2" fill="#161b22"><title>2025-01-19: 0 minutes of GPU activity</title></rect><rect x="416" y="13" width="11" height="11" rx="2" fill="#161b22"><title>2025-01-20: 0 minutes of GPU activity</title></rect><rect x="416" y="26" width="11" height="11" rx="2" fill="#161b22"><title>2025-01-21: 0 minutes of GPU activity</title></rect><rect x="416" y="39" width="11" height="11" rx="2" fill="#161b22"><title>2025-01-22: 0 minutes of GPU activity</title></rect><rect x="416" y="52" width="11" height="11" rx="2" fill="#161b22"><title>2025-01-23: 0 minutes of GPU activity</title></rect><rect x="416" y="65" width="11" height="11" rx="2" fill="#161b22"><title>2025-01-24: 0 minutes of GPU activity</title></rect><rect x="416" y="78" width="11" height="11" rx="2" fill="#161b22"><title>2025-01-25: 0 minutes of GPU activity</title></rect><rect x="429" y="0" width="11" height="11" rx="2" fill="#161b22"><title>2025-01-26: 0 minutes of GPU activity</title></rect><rect x="429" y="13" width="11" height="11" rx="2" fill="#161b22"><title>2025-01-27: 0 minutes of GPU activity</title></rect><rect x="429" y="26" width="11" height="11" rx="2" fill="#161b22"><title>2025-01-28: 0 minutes of GPU activity</title></rect><rect x="429" y="39" width="11" height="11" rx="2" fill="#161b22"><title>2025-01-29: 0 minutes of GPU activity</title></rect><rect x="429" y="52" width="11" height="11" rx="2" fill="#161b22"><title>2025-01-30: 0 minutes of GPU activity</title></rect><rect x="429" y="65" width="11" height="11" rx="2" fill="#161b22"><title>2025-01-31: 0 minutes of GPU activity</title></rect><rect x="429" y="78" width="11" height="11" rx="2" fill="#161b22"><title>2025-02-01: 0 minutes of GPU activity</title></rect><rect x="442" y="0" width="11" height="11" rx="2" fill="#161b22"><title>2025-02-02: 0 minutes of GPU activity</title></rect><rect x="442" y="13" width="11" height="11" rx="2" fill="#161b22"><title>2025-02-03: 0 minutes of GPU activity</title></rect><rect x="442" y="26" width="11" height="11" rx="2" fill="#161b22"><title>2025-02-04: 0 minutes of GPU activity</title></rect><rect x="442" y="39" width="11" height="11" rx="2" fill="#161b22"><title>2025-02-05: 0 minutes of GPU activity</title></rect><rect x="442" y="52" width="11" height="11" rx="2" fill="#161b22"><title>2025-02-06: 0 minutes of GPU activity</title></rect><rect x="442" y="65" width="11" height="11" rx="2" fill="#161b22"><title>2025-02-07: 0 minutes of GPU activity</title></rect><rect x="442" y="78" width="11" height="11" rx="2" fill="#161b22"><title>2025-02-08: 0 minutes of GPU activity</title></rect><rect x="455" y="0" width="11" height="11" rx="2" fill="#161b22"><title>2025-02-09: 0 minutes of GPU activity</title></rect><rect x="455" y="13" width="11" height="11" rx="2" fill="#161b22"><title>2025-02-10: 0 minutes of GPU activity</title></rect><rect x="455" y="26" width="11" height="11" rx="2" fill="#161b22"><title>2025-02-11: 0 minutes of GPU activity</title></rect><rect x="455" y="39" width="11" height="11" rx="2" fill="#161b22"><title>2025-02-12: 0 minutes of GPU activity</title></rect><rect x="455" y="52" width="11" height="11" rx="2" fill="#161b22"><title>2025-02-13: 0 minutes of GPU activity</title></rect><rect x="455" y="65" width="11" height="11" rx="2" fill="#161b22"><title>2025-02-14: 0 minutes of GPU activity</title></rect><rect x="455" y="78" width="11" height="11" rx="2" fill="#161b22"><title>2025-02-15: 0 minutes of GPU activity</title></rect><rect x="468" y="0" width="11" height="11" rx="2" fill="#161b22"><title>2025-02-16: 0 minutes of GPU activity</title></rect><rect x="468" y="13" width="11" height="11" rx="2" fill="#161b22"><title>2025-02-17: 0 minutes of GPU activity</title></rect><rect x="468" y="26" width="11" height="11" rx="2" fill="#161b22"><title>2025-02-18: 0 minutes of GPU activity</title></rect><rect x="468" y="39" width="11" height="11" rx="2" fill="#161b22"><title>2025-02-19: 0 minutes of GPU activity</title></rect><rect x="468" y="52" width="11" height="11" rx="2" fill="#161b22"><title>2025-02-20: 0 minutes of GPU activity</title></rect><rect x="468" y="65" width="11" height="11" rx="2" fill="#161b22"><title>2025-02-21: 0 minutes of GPU activity</title></rect><rect x="468" y="78" width="11" height="11" rx="2" fill="#161b22"><title>2025-02-22: 0 minutes of GPU activity</title></rect><rect x="481" y="0" width="11" height="11" rx="2" fill="#161b22"><title>2025-02-23: 0 minutes of GPU activity</title></rect><rect x="481" y="13" width="11" height="11" rx="2" fill="#161b22"><title>2025-02-24: 0 minutes of GPU activity</title></rect><rect x="481" y="26" width="11" height="11" rx="2" fill="#161b22"><title>2025-02-25: 0 minutes of GPU activity</title></rect><rect x="481" y="39" width="11" height="11" rx="2" fill="#161b22"><title>2025-02-26: 0 minutes of GPU activity</title></rect><rect x="481" y="52" width="11" height="11" rx="2" fill="#161b22"><title>2025-02-27: 0 minutes of GPU activity</title></rect><rect x="481" y="65" width="11" height="11" rx="2" fill="#161b22"><title>2025-02-28: 0 minutes of GPU activity</title></rect><rect x="481" y="78" width="11" height="11" rx="2" fill="#161b22"><title>2025-03-01: 0 minutes of GPU activity</title></rect><rect x="494" y="0" width="11" height="11" rx="2" fill="#161b22"><title>2025-03-02: 0 minutes of GPU activity</title></rect><rect x="494" y="13" width="11" height="11" rx="2" fill="#161b22"><title>2025-03-03: 0 minutes of GPU activity</title></rect><rect x="494" y="26" width="11" height="11" rx="2" fill="#161b22"><title>2025-03-04: 0 minutes of GPU activity</title></rect><rect x="494" y="39" width="11" height="11" rx="2" fill="#161b22"><title>2025-03-05: 0 minutes of GPU activity</title></rect><rect x="494" y="52" width="11" height="11" rx="2" fill="#161b22"><title>2025-03-06: 0 minutes of GPU activity</title></rect><rect x="494" y="65" width="11" height="11" rx="2" fill="#161b22"><title>2025-03-07: 0 minutes of GPU activity</title></rect><rect x="494" y="78" width="11" height="11" rx="2" fill="#161b22"><title>2025-03-08: 0 minutes of GPU activity</title></rect><rect x="507" y="0" width="11" height="11" rx="2" fill="#161b22"><title>2025-03-09: 0 minutes of GPU activity</title></rect><rect x="507" y="13" width="11" height="11" rx="2" fill="#161b22"><title>2025-03-10: 0 minutes of GPU activity</title></rect><rect x="507" y="26" width="11" height="11" rx="2" fill="#161b22"><title>2025-03-11: 0 minutes of GPU activity</title></rect><rect x="507" y="39" width="11" height="11" rx="2" fill="#161b22"><title>2025-03-12: 0 minutes of GPU activity</title></rect><rect x="507" y="52" width="11" height="11" rx="2" fill="#161b22"><title>2025-03-13: 0 minutes of GPU activity</title></rect><rect x="507" y="65" width="11" height="11" rx="2" fill="#161b22"><title>2025-03-14: 0 minutes of GPU activity</title></rect><rect x="507" y="78" width="11" height="11" rx="2" fill="#161b22"><title>2025-03-15: 0 minutes of GPU activity</title></rect><rect x="520" y="0" width="11" height="11" rx="2" fill="#161b22"><title>2025-03-16: 0 minutes of GPU activity</title></rect><rect x="520" y="13" width="11" height="11" rx="2" fill="#161b22"><title>2025-03-17: 0 minutes of GPU activity</title></rect><rect x="520" y="26" width="11" height="11" rx="2" fill="#161b22"><title>2025-03-18: 0 minutes of GPU activity</title></rect><rect x="520" y="39" width="11" height="11" rx="2" fill="#161b22"><title>2025-03-19: 0 minutes of GPU activity</title></rect><rect x="520" y="52" width="11" height="11" rx="2" fill="#161b22"><title>2025-03-20: 0 minutes of GPU activity</title></rect><rect x="520" y="65" width="11" height="11" rx="2" fill="#161b22"><title>2025-03-21: 0 minutes of GPU activity</title></rect><rect x="520" y="78" width="11" height="11" rx="2" fill="#161b22"><title>2025-03-22: 0 minutes of GPU activity</title></rect><rect x="533" y="0" width="11" height="11" rx="2" fill="#161b22"><title>2025-03-23: 0 minutes of GPU activity</title></rect><rect x="533" y="13" width="11" height="11" rx="2" fill="#161b22"><title>2025-03-24: 0 minutes of GPU activity</title></rect><rect x="533" y="26" width="11" height="11" rx="2" fill="#161b22"><title>2025-03-25: 0 minutes of GPU activity</title></rect><rect x="533" y="39" width="11" height="11" rx="2" fill="#161b22"><title>2025-03-26: 0 minutes of GPU activity</title></rect><rect x="533" y="52" width="11" height="11" rx="2" fill="#161b22"><title>2025-03-27: 0 minutes of GPU activity</title></rect><rect x="533" y="65" width="11" height="11" rx="2" fill="#161b22"><title>2025-03-28: 0 minutes of GPU activity</title></rect><rect x="533" y="78" width="11" height="11" rx="2" fill="#161b22"><title>2025-03-29: 0 minutes of GPU activity</title></rect><rect x="546" y="0" width="11" height="11" rx="2" fill="#161b22"><title>2025-03-30: 0 minutes of GPU activity</title></rect><rect x="546" y="13" width="11" height="11" rx="2" fill="#161b22"><title>2025-03-31: 0 minutes of GPU activity</title></rect><rect x="546" y="26" width="11" height="11" rx="2" fill="#161b22"><title>2025-04-01: 0 minutes of GPU activity</title></rect><rect x="546" y="39" width="11" height="11" rx="2" fill="#161b22"><title>2025-04-02: 0 minutes of GPU activity</title></rect><rect x="546" y="52" width="11" height="11" rx="2" fill="#161b22"><title>2025-04-03: 0 minutes of GPU activity</title></rect><rect x="546" y="65" width="11" height="11" rx="2" fill="#161b22"><title>2025-04-04: 0 minutes of GPU activity</title></rect><rect x="546" y="78" width="11" height="11" rx="2" fill="#161b22"><title>2025-04-05: 0 minutes of GPU activity</title></rect><rect x="559" y="0" width="11" height="11" rx="2" fill="#161b22"><title>2025-04-06: 0 minutes of GPU activity</title></rect><rect x="559" y="13" width="11" height="11" rx="2" fill="#161b22"><title>2025-04-07: 0 minutes of GPU activity</title></rect><rect x="559" y="26" width="11" height="11" rx="2" fill="#161b22"><title>2025-04-08: 0 minutes of GPU activity</title></rect><rect x="559" y="39" width="11" height="11" rx="2" fill="#161b22"><title>2025-04-09: 0 minutes of GPU activity</title></rect><rect x="559" y="52" width="11" height="11" rx="2" fill="#161b22"><title>2025-04-10: 0 minutes of GPU activity</title></rect><rect x="559" y="65" width="11" height="11" rx="2" fill="#161b22"><title>2025-04-11: 0 minutes of GPU activity</title></rect><rect x="559" y="78" width="11" height="11" rx="2" fill="#161b22"><title>2025-04-12: 0 minutes of GPU activity</title></rect><rect x="572" y="0" width="11" height="11" rx="2" fill="#161b22"><title>2025-04-13: 0 minutes of GPU activity</title></rect><rect x="572" y="13" width="11" height="11" rx="2" fill="#161b22"><title>2025-04-14: 0 minutes of GPU activity</title></rect><rect x="572" y="26" width="11" height="11" rx="2" fill="#161b22"><title>2025-04-15: 0 minutes of GPU activity</title></rect><rect x="572" y="39" width="11" height="11" rx="2" fill="#161b22"><title>2025-04-16: 0 minutes of GPU activity</title></rect><rect x="572" y="52" width="11" height="11" rx="2" fill="#161b22"><title>2025-04-17: 0 minutes of GPU activity</title></rect><rect x="572" y="65" width="11" height="11" rx="2" fill="#161b22"><title>2025-04-18: 0 minutes of GPU activity</title></rect><rect x="572" y="78" width="11" height="11" rx="2" fill="#161b22"><title>2025-04-19: 0 minutes of GPU activity</title></rect><rect x="585" y="0" width="11" height="11" rx="2" fill="#161b22"><title>2025-04-20: 0 minutes of GPU activity</title></rect><rect x="585" y="13" width="11" height="11" rx="2" fill="#161b22"><title>2025-04-21: 0 minutes of GPU activity</title></rect><rect x="585" y="26" width="11" height="11" rx="2" fill="#161b22"><title>2025-04-22: 0 minutes of GPU activity</title></rect><rect x="585" y="39" width="11" height="11" rx="2" fill="#161b22"><title>2025-04-23: 0 minutes of GPU activity</title></rect><rect x="585" y="52" width="11" height="11" rx="2" fill="#161b22"><title>2025-04-24: 0 minutes of GPU activity</title></rect><rect x="585" y="65" width="11" height="11" rx="2" fill="#161b22"><title>2025-04-25: 0 minutes of GPU activity</title></rect><rect x="585" y="78" width="11" height="11" rx="2" fill="#161b22"><title>2025-04-26: 0 minutes of GPU activity</title></rect><rect x="598" y="0" width="11" height="11" rx="2" fill="#161b22"><title>2025-04-27: 0 minutes of GPU activity</title></rect><rect x="598" y="13" width="11" height="11" rx="2" fill="#161b22"><title>2025-04-28: 0 minutes of GPU activity</title></rect><rect x="598" y="26" width="11" height="11" rx="2" fill="#161b22"><title>2025-04-29: 0 minutes of GPU activity</title></rect><rect x="598" y="39" width="11" height="11" rx="2" fill="#161b22"><title>2025-04-30: 0 minutes of GPU activity</title></rect><rect x="598" y="52" width="11" height="11" rx="2" fill="#161b22"><title>2025-05-01: 0 minutes of GPU activity</title></rect><rect x="598" y="65" width="11" height="11" rx="2" fill="#161b22"><title>2025-05-02: 0 minutes of GPU activity</title></rect><rect x="598" y="78" width="11" height="11" rx="2" fill="#161b22"><title>2025-05-03: 0 minutes of GPU activity</title></rect><rect x="611" y="0" width="11" height="11" rx="2" fill="#161b22"><title>2025-05-04: 0 minutes of GPU activity</title></rect><rect x="611" y="13" width="11" height="11" rx="2" fill="#161b22"><title>2025-05-05: 0 minutes of GPU activity</title></rect><rect x="611" y="26" width="11" height="11" rx="2" fill="#161b22"><title>2025-05-06: 0 minutes of GPU activity</title></rect><rect x="611" y="39" width="11" height="11" rx="2" fill="#161b22"><title>2025-05-07: 0 minutes of GPU activity</title></rect><rect x="611" y="52" width="11" height="11" rx="2" fill="#161b22"><title>2025-05-08: 0 minutes of GPU activity</title></rect><rect x="611" y="65" width="11" height="11" rx="2" fill="#161b22"><title>2025-05-09: 0 minutes of GPU activity</title></rect><rect x="611" y="78" width="11" height="11" rx="2" fill="#161b22"><title>2025-05-10: 0 minutes of GPU activity</title></rect><rect x="624" y="0" width="11" height="11" rx="2" fill="#161b22"><title>2025-05-11: 0 minutes of GPU activity</title></rect><rect x="624" y="13" width="11" height="11" rx="2" fill="#161b22"><title>2025-05-12: 0 minutes of GPU activity</title></rect><rect x="624" y="26" width="11" height="11" rx="2" fill="#161b22"><title>2025-05-13: 0 minutes of GPU activity</title></rect><rect x="624" y="39" width="11" height="11" rx="2" fill="#161b22"><title>2025-05-14: 0 minutes of GPU activity</title></rect><rect x="624" y="52" width="11" height="11" rx="2" fill="#161b22"><title>2025-05-15: 0 minutes of GPU activity</title></rect><rect x="624" y="65" width="11" height="11" rx="2" fill="#161b22"><title>2025-05-16: 0 minutes of GPU activity</title></rect><rect x="624" y="78" width="11" height="11" rx="2" fill="#161b22"><title>2025-05-17: 0 minutes of GPU activity</title></rect><rect x="637" y="0" width="11" height="11" rx="2" fill="#161b22"><title>2025-05-18: 0 minutes of GPU activity</title></rect><rect x="637" y="13" width="11" height="11" rx="2" fill="#161b22"><title>2025-05-19: 0 minutes of GPU activity</title></rect><rect x="637" y="26" width="11" height="11" rx="2" fill="#161b22"><title>2025-05-20: 0 minutes of GPU activity</title></rect><rect x="637" y="39" width="11" height="11" rx="2" fill="#161b22"><title>2025-05-21: 0 minutes of GPU activity</title></rect><rect x="637" y="52" width="11" height="11" rx="2" fill="#161b22"><title>2025-05-22: 0 minutes of GPU activity</title></rect><rect x="637" y="65" width="11" height="11" rx="2" fill="#161b22"><title>2025-05-23: 0 minutes of GPU activity</title></rect><rect x="637" y="78" width="11" height="11" rx="2" fill="#161b22"><title>2025-05-24: 0 minutes of GPU activity</title></rect><rect x="650" y="0" width="11" height="11" rx="2" fill="#161b22"><title>2025-05-25: 0 minutes of GPU activity</title></rect><rect x="650" y="13" width="11" height="11" rx="2" fill="#161b22"><title>2025-05-26: 0 minutes of GPU activity</title></rect><rect x="650" y="26" width="11" height="11" rx="2" fill="#161b22"><title>2025-05-27: 0 minutes of GPU activity</title></rect><rect x="650" y="39" width="11" height="11" rx="2" fill="#161b22"><title>2025-05-28: 0 minutes of GPU activity</title></rect><rect x="650" y="52" width="11" height="11" rx="2" fill="#26a641"><title>2025-05-29: 247 minutes of GPU activity</title></rect><rect x="650" y="65" width="11" height="11" rx="2" fill="#161b22"><title>2025-05-30: 0 minutes of GPU activity</title></rect><rect x="650" y="78" width="11" height="11" rx="2" fill="#161b22"><title>2025-05-31: 0 minutes of GPU activity</title></rect><rect x="663" y="0" width="11" height="11" rx="2" fill="#161b22"><title>2025-06-01: 0 minutes of GPU activity</title></rect><rect x="663" y="13" width="11" height="11" rx="2" fill="#39d353"><title>2025-06-02: 442 minutes of GPU activity</title></rect><rect x="663" y="26" width="11" height="11" rx="2" fill="#39d353"><title>2025-06-03: 387 minutes of GPU activity</title></rect><rect x="663" y="39" width="11" height="11" rx="2" fill="#39d353"><title>2025-06-04: 397 minutes of GPU activity</title></rect><rect x="663" y="52" width="11" height="11" rx="2" fill="#006d32"><title>2025-06-05: 165 minutes of GPU activity</title></rect><rect x="663" y="65" width="11" height="11" rx="2" fill="#26a641"><title>2025-06-06: 191 minutes of GPU activity</title></rect><rect x="663" y="78" width="11" height="11" rx="2" fill="#161b22"><title>2025-06-07: 0 minutes of GPU activity</title></rect><rect x="676" y="0" width="11" height="11" rx="2" fill="#161b22"><title>2025-06-08: 0 minutes of GPU activity</title></rect><rect x="676" y="13" width="11" height="11" rx="2" fill="#006d32"><title>2025-06-09: 171 minutes of GPU activity</title></rect><rect x="676" y="26" width="11" height="11" rx="2" fill="#161b22"><title>2025-06-10: 0 minutes of GPU activity</title></rect><rect x="676" y="39" width="11" height="11" rx="2" fill="#39d353"><title>2025-06-11: 387 minutes of GPU activity</title></rect><rect x="676" y="52" width="11" height="11" rx="2" fill="#26a641"><title>2025-06-12: 264 minutes of GPU activity</title></rect><rect x="676" y="65" width="11" height="11" rx="2" fill="#39d353"><title>2025-06-13: 389 minutes of GPU activity</title></rect><rect x="676" y="78" width="11" height="11" rx="2" fill="#161b22"><title>2025-06-14: 0 minutes of GPU activity</title></rect><rect x="689" y="0" width="11" height="11" rx="2" fill="#161b22"><title>2025-06-15: 0 minutes of GPU activity</title></rect><rect x="689" y="13" width="11" height="11" rx="2" fill="#26a641"><title>2025-06-16: 287 minutes of GPU activity</title></rect><rect x="689" y="26" width="11" height="11" rx="2" fill="#26a641"><title>2025-06-17: 353 minutes of GPU activity</title></rect><rect x="689" y="39" width="11" height="11" rx="2" fill="#39d353"><title>2025-06-18: 406 minutes of GPU activity</title></rect><rect x="689" y="52" width="11" height="11" rx="2" fill="#161b22"><title>2025-06-19: 0 minutes of GPU activity</title></rect>
    </g>
    <text x="0" y="130" fill="#7d8590" font-family="-apple-system, BlinkMacSystemFont, Segoe UI, Helvetica, Arial, sans-serif" font-size="11">
        13 active days | 0 day streak | 68 total hours
    </text>
</svg>